<svg xmlns="http://www.w3.org/2000/svg" xmlns:xlink="http://www.w3.org/1999/xlink" width="500" zoomAndPan="magnify" viewBox="0 0 375 374.999991" height="500" preserveAspectRatio="xMidYMid meet" version="1.2"><defs><clipPath id="6cc24646dc"><path d="M 69 7.453125 L 306 7.453125 L 306 248 L 69 248 Z M 69 7.453125 "/></clipPath><clipPath id="168e080285"><path d="M 302 269 L 375 269 L 375 335.953125 L 302 335.953125 Z M 302 269 "/></clipPath><clipPath id="deb2ea6d78"><path d="M 0 269 L 72 269 L 72 335.953125 L 0 335.953125 Z M 0 269 "/></clipPath><clipPath id="617408835e"><path d="M 108.644531 348.089844 L 118.570312 348.089844 L 118.570312 357.535156 L 108.644531 357.535156 Z M 108.644531 348.089844 "/></clipPath><clipPath id="db0086bd15"><path d="M 113.601562 348.089844 L 114.769531 351.699219 L 118.554688 351.699219 L 115.492188 353.925781 L 116.660156 357.535156 L 113.601562 355.304688 L 110.539062 357.535156 L 111.707031 353.925781 L 108.644531 351.699219 L 112.429688 351.699219 Z M 113.601562 348.089844 "/></clipPath><clipPath id="b07727ad25"><path d="M 252.945312 348.089844 L 262.867188 348.089844 L 262.867188 357.535156 L 252.945312 357.535156 Z M 252.945312 348.089844 "/></clipPath><clipPath id="9d0eb5e3eb"><path d="M 257.898438 348.089844 L 259.070312 351.699219 L 262.855469 351.699219 L 259.792969 353.925781 L 260.960938 357.535156 L 257.898438 355.304688 L 254.835938 357.535156 L 256.007812 353.925781 L 252.945312 351.699219 L 256.730469 351.699219 Z M 257.898438 348.089844 "/></clipPath></defs><g id="10633da666"><path style=" stroke:none;fill-rule:nonzero;fill:#ffffff;fill-opacity:1;" d="M 279.332031 148.285156 L 279.332031 59.136719 L 193.890625 35.902344 L 193.890625 148.285156 L 279.332031 148.285156 "/><g clip-rule="nonzero" clip-path="url(#6cc24646dc)"><path style=" stroke:none;fill-rule:nonzero;fill:#ffffff;fill-opacity:1;" d="M 187.351562 7.460938 L 69.644531 39.476562 L 69.644531 183.855469 C 69.644531 207.167969 76.425781 228.902344 88.121094 247.1875 C 92.308594 245.714844 96.535156 244.332031 100.785156 243.042969 C 88.90625 225.746094 82.507812 205.292969 82.507812 183.855469 L 82.507812 49.308594 L 187.351562 20.792969 L 292.195312 49.308594 L 292.195312 183.855469 C 292.195312 205.269531 285.8125 225.703125 273.953125 242.988281 C 278.203125 244.273438 282.433594 245.652344 286.621094 247.125 C 298.292969 228.851562 305.054688 207.144531 305.054688 183.855469 L 305.054688 39.476562 L 187.351562 7.460938 "/></g><path style=" stroke:none;fill-rule:nonzero;fill:#ffffff;fill-opacity:1;" d="M 187.460938 283.625 C 169.628906 283.625 152.078125 285.519531 134.9375 289.277344 C 150.722656 297.136719 168.519531 301.5625 187.351562 301.5625 C 206.207031 301.5625 224.03125 297.125 239.828125 289.242188 C 222.738281 285.507812 205.238281 283.625 187.460938 283.625 "/><path style=" stroke:none;fill-rule:nonzero;fill:#ffffff;fill-opacity:1;" d="M 338.472656 183.78125 C 338.472656 183.78125 331.097656 186.351562 326.269531 191.8125 C 326.414062 189.171875 326.492188 186.519531 326.492188 183.855469 L 326.492188 181.320312 C 338.792969 177.195312 338.023438 159.214844 338.023438 159.214844 C 338.023438 159.214844 330.949219 162.230469 326.492188 167.910156 L 326.492188 157.703125 C 338.792969 153.578125 338.023438 135.601562 338.023438 135.601562 C 338.023438 135.601562 330.949219 138.613281 326.492188 144.296875 L 326.492188 134.085938 C 338.792969 129.960938 338.023438 111.984375 338.023438 111.984375 C 338.023438 111.984375 330.949219 114.996094 326.492188 120.679688 L 326.492188 110.46875 C 338.792969 106.34375 338.023438 88.367188 338.023438 88.367188 C 338.023438 88.367188 330.949219 91.378906 326.492188 97.058594 L 326.492188 86.851562 C 338.792969 82.726562 338.023438 64.75 338.023438 64.75 C 338.023438 64.75 330.949219 67.761719 326.492188 73.441406 L 326.492188 63.234375 C 338.792969 59.109375 338.023438 41.132812 338.023438 41.132812 C 338.023438 41.132812 330.949219 44.144531 326.492188 49.828125 L 326.492188 45.640625 C 338.078125 36.585938 324.347656 20.792969 324.347656 20.792969 C 324.347656 20.792969 310.621094 36.585938 322.207031 45.640625 L 322.207031 49.828125 C 317.75 44.144531 310.675781 41.132812 310.675781 41.132812 C 310.675781 41.132812 309.902344 59.109375 322.207031 63.234375 L 322.207031 73.445312 C 317.75 67.761719 310.675781 64.75 310.675781 64.75 C 310.675781 64.75 309.902344 82.726562 322.207031 86.851562 L 322.207031 97.058594 C 317.75 91.378906 310.675781 88.367188 310.675781 88.367188 C 310.675781 88.367188 309.902344 106.34375 322.207031 110.46875 L 322.207031 120.679688 C 317.75 114.996094 310.675781 111.984375 310.675781 111.984375 C 310.675781 111.984375 309.902344 129.960938 322.207031 134.085938 L 322.207031 144.296875 C 317.75 138.613281 310.675781 135.601562 310.675781 135.601562 C 310.675781 135.601562 309.902344 153.578125 322.207031 157.703125 L 322.207031 167.910156 C 317.75 162.230469 310.675781 159.214844 310.675781 159.214844 C 310.675781 159.214844 309.902344 177.195312 322.207031 181.320312 L 322.207031 183.855469 C 322.207031 186.328125 322.136719 188.792969 322.003906 191.246094 C 317.929688 185.363281 311.1875 181.9375 311.1875 181.9375 C 311.1875 181.9375 309.269531 199.253906 320.636719 204.519531 C 318.957031 215.445312 315.941406 226.09375 311.601562 236.351562 C 309.101562 242.261719 306.203125 247.953125 302.921875 253.402344 C 304.25 253.957031 305.574219 254.527344 306.894531 255.105469 C 310.15625 249.636719 313.046875 243.9375 315.550781 238.023438 C 320.023438 227.441406 323.136719 216.464844 324.867188 205.203125 C 338.015625 202.347656 338.472656 183.78125 338.472656 183.78125 "/><path style=" stroke:none;fill-rule:nonzero;fill:#ffffff;fill-opacity:1;" d="M 53.988281 204.035156 C 63.878906 199.070312 64.253906 183.78125 64.253906 183.78125 C 64.253906 183.78125 57.503906 186.136719 52.6875 191.121094 C 52.5625 188.707031 52.496094 186.289062 52.496094 183.855469 L 52.496094 181.242188 C 64.566406 176.976562 63.804688 159.214844 63.804688 159.214844 C 63.804688 159.214844 56.960938 162.136719 52.496094 167.636719 L 52.496094 157.628906 C 64.566406 153.359375 63.804688 135.601562 63.804688 135.601562 C 63.804688 135.601562 56.960938 138.515625 52.496094 144.023438 L 52.496094 134.007812 C 64.566406 129.742188 63.804688 111.984375 63.804688 111.984375 C 63.804688 111.984375 56.960938 114.898438 52.496094 120.402344 L 52.496094 110.390625 C 64.566406 106.128906 63.804688 88.367188 63.804688 88.367188 C 63.804688 88.367188 56.960938 91.285156 52.496094 96.785156 L 52.496094 86.773438 C 64.566406 82.507812 63.804688 64.75 63.804688 64.75 C 63.804688 64.75 56.960938 67.664062 52.496094 73.167969 L 52.496094 63.160156 C 64.566406 58.890625 63.804688 41.132812 63.804688 41.132812 C 63.804688 41.132812 56.960938 44.046875 52.496094 49.554688 L 52.496094 45.464844 C 63.683594 36.382812 50.128906 20.792969 50.128906 20.792969 C 50.128906 20.792969 36.226562 36.789062 48.207031 45.816406 L 48.207031 50.117188 C 43.765625 44.25 36.457031 41.132812 36.457031 41.132812 C 36.457031 41.132812 35.675781 59.324219 48.207031 63.308594 L 48.207031 73.730469 C 43.765625 67.863281 36.457031 64.75 36.457031 64.75 C 36.457031 64.75 35.675781 82.941406 48.207031 86.925781 L 48.207031 97.347656 C 43.765625 91.480469 36.457031 88.367188 36.457031 88.367188 C 36.457031 88.367188 35.675781 106.558594 48.207031 110.542969 L 48.207031 120.96875 C 43.765625 115.101562 36.457031 111.984375 36.457031 111.984375 C 36.457031 111.984375 35.675781 130.175781 48.207031 134.160156 L 48.207031 144.582031 C 43.765625 138.714844 36.457031 135.601562 36.457031 135.601562 C 36.457031 135.601562 35.675781 153.792969 48.207031 157.777344 L 48.207031 168.199219 C 43.765625 162.332031 36.457031 159.214844 36.457031 159.214844 C 36.457031 159.214844 35.675781 177.410156 48.207031 181.394531 L 48.207031 183.855469 C 48.207031 186.675781 48.292969 189.484375 48.457031 192.277344 C 44.503906 185.765625 36.972656 181.9375 36.972656 181.9375 C 36.972656 181.9375 34.839844 201.140625 48.339844 205.253906 C 48.363281 205.34375 48.378906 205.433594 48.402344 205.527344 C 48.632812 205.507812 48.859375 205.484375 49.085938 205.460938 C 49.304688 205.519531 49.527344 205.570312 49.753906 205.617188 C 49.789062 205.527344 49.816406 205.441406 49.847656 205.355469 L 49.855469 205.355469 C 51.59375 216.5625 54.699219 227.492188 59.152344 238.023438 C 61.667969 243.96875 64.570312 249.691406 67.847656 255.179688 C 69.171875 254.601562 70.496094 254.035156 71.828125 253.476562 C 68.527344 248.003906 65.613281 242.292969 63.101562 236.351562 C 58.695312 225.941406 55.652344 215.125 53.988281 204.035156 "/><path style=" stroke:none;fill-rule:nonzero;fill:#ffffff;fill-opacity:1;" d="M 239.847656 308.105469 C 223.210938 315.140625 205.546875 318.710938 187.351562 318.710938 C 169.152344 318.710938 151.492188 315.140625 134.851562 308.105469 C 126.71875 304.664062 119.007812 300.472656 111.769531 295.5625 C 110.078125 296.117188 108.394531 296.6875 106.710938 297.273438 C 114.941406 303.136719 123.789062 308.082031 133.183594 312.054688 C 150.351562 319.316406 168.578125 322.996094 187.351562 322.996094 C 206.125 322.996094 224.347656 319.316406 241.515625 312.054688 C 250.9375 308.070312 259.808594 303.105469 268.058594 297.222656 C 266.378906 296.636719 264.695312 296.066406 263.003906 295.515625 C 255.746094 300.445312 248.007812 304.652344 239.847656 308.105469 "/><path style=" stroke:none;fill-rule:nonzero;fill:#ffffff;fill-opacity:1;" d="M 289.734375 298.117188 C 224.691406 269.269531 150.230469 269.269531 85.1875 298.117188 C 79.835938 286.214844 74.484375 274.316406 69.136719 262.417969 C 144.308594 229.015625 230.613281 229.015625 305.789062 262.417969 C 300.4375 274.316406 295.085938 286.214844 289.734375 298.117188 "/><g clip-rule="nonzero" clip-path="url(#168e080285)"><path style=" stroke:none;fill-rule:nonzero;fill:#ffffff;fill-opacity:1;" d="M 349.417969 335.96875 C 335.0625 323.835938 319.582031 313.34375 302.972656 304.546875 C 309.015625 292.984375 315.054688 281.417969 321.097656 269.855469 C 340.316406 280.011719 358.246094 292.164062 374.835938 306.207031 C 362.570312 304.117188 350.246094 302.894531 337.8125 302.582031 C 342.394531 313.46875 346.273438 324.582031 349.417969 335.96875 "/></g><g clip-rule="nonzero" clip-path="url(#deb2ea6d78)"><path style=" stroke:none;fill-rule:nonzero;fill:#ffffff;fill-opacity:1;" d="M 25.503906 335.96875 C 39.855469 323.835938 55.34375 313.34375 71.949219 304.546875 C 65.90625 292.984375 59.863281 281.417969 53.824219 269.855469 C 34.605469 280.011719 16.675781 292.164062 0.0859375 306.207031 C 12.351562 304.117188 24.675781 302.894531 37.109375 302.582031 C 32.527344 313.46875 28.648438 324.582031 25.503906 335.96875 "/></g><path style=" stroke:none;fill-rule:nonzero;fill:#000000;fill-opacity:1;" d="M 254.621094 118.167969 C 252.367188 116.789062 249.984375 115.691406 247.527344 114.878906 C 249.132812 111.042969 250.015625 106.96875 250.179688 102.871094 L 261.117188 102.871094 C 260.792969 108.765625 258.386719 114.105469 254.621094 118.167969 Z M 218.601562 84.816406 C 220.855469 86.195312 223.238281 87.289062 225.695312 88.105469 C 224.089844 91.941406 223.207031 96.015625 223.046875 100.113281 L 212.105469 100.113281 C 212.433594 94.21875 214.835938 88.878906 218.601562 84.816406 Z M 237.992188 100.113281 L 237.992188 89.832031 C 240.296875 89.742188 242.597656 89.421875 244.855469 88.871094 C 246.398438 92.453125 247.253906 96.273438 247.417969 100.113281 Z M 237.992188 113.152344 L 237.992188 102.871094 L 247.417969 102.871094 C 247.253906 106.710938 246.398438 110.527344 244.855469 114.113281 C 242.597656 113.566406 240.296875 113.242188 237.992188 113.152344 Z M 246.351562 117.398438 C 248.492188 118.082031 250.578125 119 252.558594 120.148438 C 249.132812 123.078125 244.894531 125.082031 240.226562 125.773438 C 242.742188 123.246094 244.785156 120.414062 246.351562 117.398438 Z M 237.992188 124.101562 L 237.992188 115.910156 C 239.882812 115.992188 241.765625 116.242188 243.621094 116.65625 C 242.160156 119.34375 240.285156 121.859375 237.992188 124.101562 Z M 226.875 117.398438 C 228.441406 120.414062 230.480469 123.246094 233 125.773438 C 228.332031 125.082031 224.089844 123.078125 220.664062 120.148438 C 222.644531 119 224.730469 118.082031 226.875 117.398438 Z M 235.234375 124.101562 C 232.9375 121.859375 231.0625 119.34375 229.601562 116.65625 C 231.457031 116.242188 233.339844 115.992188 235.234375 115.910156 Z M 235.234375 102.871094 L 235.234375 113.152344 C 232.925781 113.242188 230.625 113.5625 228.367188 114.113281 C 226.824219 110.527344 225.96875 106.710938 225.804688 102.871094 Z M 235.234375 89.832031 L 235.234375 100.113281 L 225.804688 100.113281 C 225.96875 96.273438 226.824219 92.453125 228.367188 88.871094 C 230.625 89.421875 232.925781 89.742188 235.234375 89.832031 Z M 226.875 85.589844 C 224.730469 84.902344 222.644531 83.984375 220.664062 82.832031 C 224.089844 79.90625 228.332031 77.902344 233 77.214844 C 230.480469 79.738281 228.441406 82.566406 226.875 85.589844 Z M 235.234375 78.878906 L 235.234375 87.070312 C 233.339844 86.992188 231.457031 86.742188 229.601562 86.328125 C 231.0625 83.640625 232.9375 81.125 235.234375 78.878906 Z M 240.226562 77.214844 C 244.894531 77.902344 249.132812 79.90625 252.558594 82.835938 C 250.578125 83.984375 248.492188 84.902344 246.351562 85.589844 C 244.785156 82.570312 242.742188 79.738281 240.226562 77.214844 Z M 237.992188 78.878906 C 240.285156 81.125 242.160156 83.640625 243.621094 86.328125 C 241.765625 86.742188 239.882812 86.992188 237.992188 87.070312 Z M 223.046875 102.871094 C 223.207031 106.96875 224.089844 111.042969 225.695312 114.878906 C 223.238281 115.691406 220.855469 116.789062 218.601562 118.167969 C 214.835938 114.105469 212.433594 108.765625 212.105469 102.871094 Z M 261.117188 100.113281 L 250.179688 100.113281 C 250.015625 96.015625 249.132812 91.941406 247.527344 88.105469 C 249.984375 87.289062 252.367188 86.195312 254.621094 84.816406 C 258.386719 88.878906 260.792969 94.21875 261.117188 100.113281 Z M 236.613281 74.386719 C 221.644531 74.386719 209.507812 86.523438 209.507812 101.492188 C 209.507812 116.464844 221.644531 128.597656 236.613281 128.597656 C 251.578125 128.597656 263.714844 116.464844 263.714844 101.492188 C 263.714844 86.523438 251.578125 74.386719 236.613281 74.386719 "/><path style=" stroke:none;fill-rule:nonzero;fill:#ffffff;fill-opacity:1;" d="M 95.367188 161.144531 L 95.367188 183.855469 C 95.367188 204.167969 101.914062 223.46875 113.996094 239.367188 C 117.90625 238.378906 121.835938 237.464844 125.78125 236.636719 C 143.917969 232.820312 162.472656 230.695312 181.03125 230.296875 L 181.03125 161.144531 L 95.367188 161.144531 "/><path style=" stroke:none;fill-rule:nonzero;fill:#ffffff;fill-opacity:1;" d="M 193.890625 161.144531 L 193.890625 230.296875 C 212.453125 230.695312 231.007812 232.820312 249.136719 236.636719 C 253.019531 237.453125 256.886719 238.351562 260.738281 239.324219 C 272.800781 223.433594 279.332031 204.148438 279.332031 183.855469 L 279.332031 161.144531 L 193.890625 161.144531 "/><path style=" stroke:none;fill-rule:nonzero;fill:#ffffff;fill-opacity:1;" d="M 181.03125 148.285156 L 181.03125 35.84375 L 95.367188 59.136719 L 95.367188 148.285156 L 181.03125 148.285156 "/><path style=" stroke:none;fill-rule:nonzero;fill:#000000;fill-opacity:1;" d="M 107.679688 84.417969 L 107.679688 119.101562 L 109.179688 118.941406 C 110.328125 118.816406 111.496094 118.753906 112.65625 118.753906 C 120.214844 118.753906 126.644531 121.425781 130.710938 123.664062 C 135.117188 126.089844 137.730469 128.519531 137.753906 128.542969 L 137.8125 128.597656 C 134.09375 126.582031 118.992188 119.183594 103.890625 123.058594 L 103.890625 84.613281 C 105.152344 84.476562 106.417969 84.414062 107.679688 84.417969 "/><path style=" stroke:none;fill-rule:nonzero;fill:#000000;fill-opacity:1;" d="M 135.179688 122.050781 C 130.296875 118.917969 122.335938 115.085938 112.65625 115.085938 C 112.222656 115.085938 111.785156 115.089844 111.347656 115.109375 L 111.347656 82.378906 C 111.785156 82.359375 112.222656 82.351562 112.65625 82.351562 C 117.59375 82.351562 122.585938 83.496094 127.5 85.757812 C 130.90625 87.320312 133.558594 89.105469 135.179688 90.324219 Z M 109.035156 80.230469 L 109.035156 117.59375 C 123.011719 116.085938 133.988281 123.738281 137.5 126.550781 L 137.5 89.1875 C 133.988281 86.375 123.011719 78.726562 109.035156 80.230469 "/><path style=" stroke:none;fill-rule:nonzero;fill:#000000;fill-opacity:1;" d="M 168.664062 84.417969 L 168.664062 119.101562 L 167.164062 118.941406 C 166.015625 118.816406 164.84375 118.753906 163.683594 118.753906 C 156.128906 118.753906 149.695312 121.425781 145.632812 123.664062 C 141.222656 126.089844 138.613281 128.519531 138.585938 128.542969 L 138.527344 128.597656 C 142.246094 126.582031 157.351562 119.183594 172.453125 123.058594 L 172.453125 84.613281 C 171.191406 84.476562 169.921875 84.414062 168.664062 84.417969 "/><path style=" stroke:none;fill-rule:nonzero;fill:#000000;fill-opacity:1;" d="M 164.992188 115.109375 C 164.554688 115.089844 164.121094 115.085938 163.683594 115.085938 C 154.003906 115.085938 146.046875 118.917969 141.160156 122.050781 L 141.160156 90.324219 C 142.785156 89.105469 145.4375 87.320312 148.84375 85.757812 C 153.757812 83.496094 158.75 82.351562 163.683594 82.351562 C 164.121094 82.351562 164.558594 82.359375 164.992188 82.378906 Z M 138.84375 89.1875 L 138.84375 126.550781 C 142.351562 123.738281 153.332031 116.085938 167.308594 117.59375 L 167.308594 80.230469 C 153.332031 78.726562 142.351562 86.375 138.84375 89.1875 "/><path style=" stroke:none;fill-rule:nonzero;fill:#000000;fill-opacity:1;" d="M 217 215.035156 L 216.324219 223.164062 L 223.9375 220.242188 C 222.125 217.929688 219.730469 216.128906 217 215.035156 Z M 230.960938 212.40625 C 229.039062 213.324219 226.675781 213.175781 224.851562 211.800781 C 223.027344 210.433594 222.21875 208.210938 222.566406 206.101562 C 221.066406 206.824219 219.304688 206.890625 217.734375 206.234375 L 217.117188 213.652344 C 220.347656 214.863281 223.167969 216.980469 225.234375 219.746094 L 232.1875 217.082031 C 231.117188 215.757812 230.6875 214.046875 230.960938 212.40625 Z M 258.476562 176.863281 L 252.28125 185.113281 L 254.882812 187.0625 L 258.988281 181.589844 C 260.09375 180.117188 259.855469 178.050781 258.476562 176.863281 Z M 233.128906 210.625 C 231.890625 212.273438 231.9375 214.496094 233.097656 216.078125 L 253.527344 188.863281 L 250.929688 186.914062 Z M 251.21875 184.3125 L 257.421875 176.050781 L 250.09375 170.550781 L 243.890625 178.808594 Z M 224.738281 204.324219 C 223.222656 206.34375 223.632812 209.222656 225.652344 210.738281 C 227.671875 212.253906 230.550781 211.84375 232.0625 209.824219 L 249.863281 186.113281 L 242.539062 180.613281 Z M 249.019531 169.761719 C 247.496094 168.769531 245.441406 169.117188 244.335938 170.59375 L 240.230469 176.058594 L 242.828125 178.011719 Z M 223.671875 203.523438 L 241.472656 179.8125 L 238.875 177.863281 L 218.445312 205.082031 C 220.289062 205.75 222.433594 205.175781 223.671875 203.523438 "/><path style=" stroke:none;fill-rule:nonzero;fill:#000000;fill-opacity:1;" d="M 130.675781 182.792969 C 128.6875 182.792969 127.070312 184.410156 127.070312 186.398438 C 127.070312 188.386719 128.6875 190.003906 130.675781 190.003906 L 134.277344 190.003906 L 134.277344 186.398438 C 134.277344 184.410156 132.664062 182.792969 130.675781 182.792969 "/><path style=" stroke:none;fill-rule:nonzero;fill:#000000;fill-opacity:1;" d="M 138.199219 207.554688 C 139.875 207.554688 141.234375 206.191406 141.234375 204.519531 L 141.234375 190.886719 L 135.164062 190.886719 L 135.164062 204.519531 C 135.164062 206.191406 136.527344 207.554688 138.199219 207.554688 "/><path style=" stroke:none;fill-rule:nonzero;fill:#000000;fill-opacity:1;" d="M 149.328125 186.398438 C 149.328125 184.410156 147.714844 182.792969 145.722656 182.792969 C 143.734375 182.792969 142.121094 184.410156 142.121094 186.398438 L 142.121094 190.003906 L 145.722656 190.003906 C 147.714844 190.003906 149.328125 188.386719 149.328125 186.398438 "/><path style=" stroke:none;fill-rule:nonzero;fill:#000000;fill-opacity:1;" d="M 151.066406 174.890625 C 147.628906 171.496094 143.0625 169.632812 138.199219 169.632812 L 138.15625 169.632812 C 133.28125 169.640625 128.695312 171.550781 125.246094 175.007812 C 121.800781 178.457031 119.902344 183.046875 119.902344 187.929688 C 119.902344 193.074219 122.085938 198.015625 125.898438 201.476562 C 128.015625 203.398438 129.8125 205.652344 131.242188 208.167969 L 131.242188 191.769531 L 132.125 191.769531 L 132.125 207.421875 C 133.371094 207.046875 134.277344 205.886719 134.277344 204.519531 L 134.277344 190.886719 L 130.675781 190.886719 C 128.199219 190.886719 126.1875 188.875 126.1875 186.398438 C 126.1875 183.921875 128.199219 181.910156 130.675781 181.910156 C 133.152344 181.910156 135.164062 183.921875 135.164062 186.398438 L 135.164062 190.003906 L 141.234375 190.003906 L 141.234375 186.398438 C 141.234375 183.921875 143.246094 181.910156 145.722656 181.910156 C 148.199219 181.910156 150.210938 183.921875 150.210938 186.398438 C 150.210938 188.875 148.199219 190.886719 145.722656 190.886719 L 142.121094 190.886719 L 142.121094 204.519531 C 142.121094 205.886719 143.027344 207.046875 144.273438 207.421875 L 144.273438 191.769531 L 145.15625 191.769531 L 145.15625 208.261719 C 146.609375 205.6875 148.441406 203.375 150.601562 201.382812 C 154.414062 197.867188 156.5625 192.875 156.496094 187.683594 C 156.433594 182.824219 154.507812 178.28125 151.066406 174.890625 "/><path style=" stroke:none;fill-rule:nonzero;fill:#000000;fill-opacity:1;" d="M 144.5 215.605469 C 144.5 218.824219 142.261719 221.519531 139.253906 222.222656 C 141.582031 220.933594 143.15625 218.453125 143.15625 215.605469 L 143.15625 213.980469 L 144.5 213.980469 Z M 130.644531 213.21875 L 130.644531 215.605469 C 130.644531 219.78125 134.027344 223.164062 138.199219 223.164062 C 142.371094 223.164062 145.757812 219.78125 145.757812 215.605469 L 145.757812 213.21875 L 130.644531 213.21875 "/><path style=" stroke:none;fill-rule:nonzero;fill:#000000;fill-opacity:1;" d="M 145.757812 209.613281 L 130.644531 209.613281 L 130.644531 211.667969 L 145.757812 211.667969 L 145.757812 209.613281 "/><g clip-rule="nonzero" clip-path="url(#617408835e)"><g clip-rule="nonzero" clip-path="url(#db0086bd15)"><path style=" stroke:none;fill-rule:nonzero;fill:#ffffff;fill-opacity:1;" d="M 108.644531 348.089844 L 118.570312 348.089844 L 118.570312 357.535156 L 108.644531 357.535156 Z M 108.644531 348.089844 "/></g></g><g style="fill:#000000;fill-opacity:1;"><g transform="translate(90.551082, 282.36244)"><path style="stroke:none" d="M 7.984375 -2.53125 C 6.753906 -2.09375 5.601562 -1.851562 4.53125 -1.8125 C 3.457031 -1.78125 2.507812 -1.898438 1.6875 -2.171875 C 0.875 -2.453125 0.191406 -2.820312 -0.359375 -3.28125 L 0.75 -6.328125 L 1.0625 -6.4375 C 1.875 -5.832031 2.773438 -5.4375 3.765625 -5.25 C 4.765625 -5.070312 5.8125 -5.175781 6.90625 -5.5625 C 7.851562 -5.894531 8.492188 -6.347656 8.828125 -6.921875 C 9.171875 -7.492188 9.21875 -8.132812 8.96875 -8.84375 C 8.820312 -9.257812 8.617188 -9.582031 8.359375 -9.8125 C 8.109375 -10.039062 7.765625 -10.191406 7.328125 -10.265625 C 6.898438 -10.335938 6.359375 -10.34375 5.703125 -10.28125 L 3.234375 -10 C 1.503906 -9.800781 0.0976562 -9.984375 -0.984375 -10.546875 C -2.078125 -11.117188 -2.863281 -12.085938 -3.34375 -13.453125 C -3.695312 -14.453125 -3.753906 -15.425781 -3.515625 -16.375 C -3.285156 -17.320312 -2.757812 -18.175781 -1.9375 -18.9375 C -1.125 -19.695312 -0.0507812 -20.3125 1.28125 -20.78125 C 2.65625 -21.269531 3.894531 -21.503906 5 -21.484375 C 6.101562 -21.460938 7.128906 -21.203125 8.078125 -20.703125 L 7.1875 -17.703125 L 6.875 -17.59375 C 6.1875 -17.945312 5.46875 -18.132812 4.71875 -18.15625 C 3.976562 -18.1875 3.1875 -18.054688 2.34375 -17.765625 C 1.382812 -17.421875 0.710938 -16.988281 0.328125 -16.46875 C -0.0546875 -15.957031 -0.144531 -15.398438 0.0625 -14.796875 C 0.257812 -14.234375 0.59375 -13.847656 1.0625 -13.640625 C 1.539062 -13.429688 2.25 -13.390625 3.1875 -13.515625 L 5.703125 -13.859375 C 7.566406 -14.085938 9.039062 -13.90625 10.125 -13.3125 C 11.207031 -12.726562 11.992188 -11.734375 12.484375 -10.328125 C 12.878906 -9.203125 12.984375 -8.140625 12.796875 -7.140625 C 12.609375 -6.148438 12.109375 -5.257812 11.296875 -4.46875 C 10.492188 -3.675781 9.390625 -3.03125 7.984375 -2.53125 Z M 7.984375 -2.53125 "/></g></g><g style="fill:#000000;fill-opacity:1;"><g transform="translate(105.43601, 277.114715)"><path style="stroke:none" d="M 5.421875 -1.296875 C 4.535156 -1.046875 3.722656 -0.984375 2.984375 -1.109375 C 2.242188 -1.242188 1.609375 -1.570312 1.078125 -2.09375 C 0.546875 -2.613281 0.148438 -3.316406 -0.109375 -4.203125 C -0.335938 -5.003906 -0.359375 -5.734375 -0.171875 -6.390625 C 0.015625 -7.046875 0.425781 -7.65625 1.0625 -8.21875 C 1.695312 -8.78125 2.566406 -9.328125 3.671875 -9.859375 C 4.460938 -10.222656 5.046875 -10.546875 5.421875 -10.828125 C 5.796875 -11.117188 6.03125 -11.378906 6.125 -11.609375 C 6.21875 -11.847656 6.21875 -12.125 6.125 -12.4375 C 6 -12.875 5.75 -13.160156 5.375 -13.296875 C 5.007812 -13.441406 4.46875 -13.410156 3.75 -13.203125 C 2.976562 -12.984375 2.300781 -12.601562 1.71875 -12.0625 C 1.132812 -11.53125 0.671875 -10.914062 0.328125 -10.21875 L 0.078125 -10.140625 L -2 -11.90625 C -1.519531 -12.875 -0.84375 -13.71875 0.03125 -14.4375 C 0.90625 -15.15625 1.929688 -15.6875 3.109375 -16.03125 C 4.921875 -16.5625 6.34375 -16.554688 7.375 -16.015625 C 8.40625 -15.484375 9.128906 -14.507812 9.546875 -13.09375 L 11.28125 -7.15625 C 11.457031 -6.539062 11.816406 -6.3125 12.359375 -6.46875 C 12.566406 -6.53125 12.765625 -6.628906 12.953125 -6.765625 L 13.109375 -6.765625 L 14.0625 -4.453125 C 13.90625 -4.265625 13.671875 -4.078125 13.359375 -3.890625 C 13.046875 -3.710938 12.6875 -3.566406 12.28125 -3.453125 C 11.46875 -3.210938 10.78125 -3.179688 10.21875 -3.359375 C 9.664062 -3.546875 9.195312 -3.945312 8.8125 -4.5625 L 8.53125 -4.515625 C 8.28125 -2.898438 7.242188 -1.828125 5.421875 -1.296875 Z M 5.75 -4.171875 C 6.550781 -4.410156 7.109375 -4.863281 7.421875 -5.53125 C 7.742188 -6.207031 7.769531 -7.019531 7.5 -7.96875 L 7.09375 -9.34375 L 6.84375 -9.34375 C 6.6875 -9.113281 6.457031 -8.894531 6.15625 -8.6875 C 5.851562 -8.488281 5.40625 -8.238281 4.8125 -7.9375 C 4.09375 -7.59375 3.613281 -7.222656 3.375 -6.828125 C 3.132812 -6.429688 3.097656 -5.957031 3.265625 -5.40625 C 3.429688 -4.8125 3.726562 -4.410156 4.15625 -4.203125 C 4.59375 -4.003906 5.125 -3.992188 5.75 -4.171875 Z M 5.75 -4.171875 "/></g></g><g style="fill:#000000;fill-opacity:1;"><g transform="translate(119.415894, 273.00604)"><path style="stroke:none" d="M 6.9375 -1.3125 C 5.820312 -1.050781 4.78125 -1.09375 3.8125 -1.4375 C 2.851562 -1.78125 2.007812 -2.429688 1.28125 -3.390625 C 0.5625 -4.359375 0.0195312 -5.632812 -0.34375 -7.21875 C -0.707031 -8.8125 -0.765625 -10.203125 -0.515625 -11.390625 C -0.273438 -12.585938 0.210938 -13.550781 0.953125 -14.28125 C 1.703125 -15.019531 2.644531 -15.519531 3.78125 -15.78125 C 4.65625 -15.976562 5.441406 -16 6.140625 -15.84375 C 6.847656 -15.6875 7.488281 -15.347656 8.0625 -14.828125 L 8.34375 -14.9375 L 6.71875 -22.046875 L 10.203125 -22.84375 L 14.65625 -3.359375 L 11.171875 -2.5625 L 10.765625 -4.359375 L 10.46875 -4.359375 C 10.226562 -3.609375 9.816406 -2.96875 9.234375 -2.4375 C 8.648438 -1.90625 7.882812 -1.53125 6.9375 -1.3125 Z M 7.375 -4.53125 C 8.351562 -4.757812 9.050781 -5.285156 9.46875 -6.109375 C 9.882812 -6.941406 9.925781 -8.070312 9.59375 -9.5 C 9.269531 -10.925781 8.738281 -11.925781 8 -12.5 C 7.269531 -13.070312 6.414062 -13.242188 5.4375 -13.015625 C 4.40625 -12.785156 3.695312 -12.269531 3.3125 -11.46875 C 2.9375 -10.664062 2.914062 -9.523438 3.25 -8.046875 C 3.582031 -6.585938 4.09375 -5.578125 4.78125 -5.015625 C 5.476562 -4.460938 6.34375 -4.300781 7.375 -4.53125 Z M 7.375 -4.53125 "/></g></g><g style="fill:#000000;fill-opacity:1;"><g transform="translate(135.62331, 269.310664)"><path style="stroke:none" d="M 5.53125 -0.65625 C 4.625 -0.507812 3.8125 -0.539062 3.09375 -0.75 C 2.375 -0.96875 1.78125 -1.367188 1.3125 -1.953125 C 0.84375 -2.535156 0.535156 -3.273438 0.390625 -4.171875 C 0.242188 -5.003906 0.300781 -5.734375 0.5625 -6.359375 C 0.832031 -6.992188 1.3125 -7.550781 2 -8.03125 C 2.6875 -8.519531 3.613281 -8.960938 4.78125 -9.359375 C 5.601562 -9.640625 6.21875 -9.898438 6.625 -10.140625 C 7.039062 -10.378906 7.304688 -10.609375 7.421875 -10.828125 C 7.546875 -11.054688 7.582031 -11.332031 7.53125 -11.65625 C 7.457031 -12.101562 7.238281 -12.421875 6.875 -12.609375 C 6.519531 -12.796875 5.976562 -12.828125 5.25 -12.703125 C 4.46875 -12.566406 3.75 -12.265625 3.09375 -11.796875 C 2.445312 -11.328125 1.914062 -10.765625 1.5 -10.109375 L 1.234375 -10.0625 L -0.609375 -12.046875 C -0.0234375 -12.960938 0.738281 -13.726562 1.6875 -14.34375 C 2.644531 -14.957031 3.726562 -15.367188 4.9375 -15.578125 C 6.800781 -15.890625 8.21875 -15.71875 9.1875 -15.0625 C 10.15625 -14.414062 10.757812 -13.363281 11 -11.90625 L 12.03125 -5.8125 C 12.144531 -5.1875 12.476562 -4.921875 13.03125 -5.015625 C 13.238281 -5.046875 13.4375 -5.113281 13.625 -5.21875 L 13.8125 -5.1875 L 14.484375 -2.796875 C 14.316406 -2.628906 14.0625 -2.472656 13.71875 -2.328125 C 13.382812 -2.191406 13.007812 -2.085938 12.59375 -2.015625 C 11.757812 -1.867188 11.078125 -1.914062 10.546875 -2.15625 C 10.023438 -2.40625 9.601562 -2.859375 9.28125 -3.515625 L 9 -3.5 C 8.550781 -1.925781 7.394531 -0.976562 5.53125 -0.65625 Z M 6.1875 -3.484375 C 7.007812 -3.628906 7.617188 -4.015625 8.015625 -4.640625 C 8.421875 -5.265625 8.539062 -6.066406 8.375 -7.046875 L 8.125 -8.46875 L 7.875 -8.5 C 7.695312 -8.28125 7.441406 -8.082031 7.109375 -7.90625 C 6.785156 -7.738281 6.3125 -7.546875 5.6875 -7.328125 C 4.9375 -7.078125 4.421875 -6.765625 4.140625 -6.390625 C 3.859375 -6.015625 3.765625 -5.546875 3.859375 -4.984375 C 3.960938 -4.378906 4.21875 -3.953125 4.625 -3.703125 C 5.03125 -3.453125 5.550781 -3.378906 6.1875 -3.484375 Z M 6.1875 -3.484375 "/></g></g><g style="fill:#000000;fill-opacity:1;"><g transform="translate(150.077588, 266.908061)"><path style="stroke:none" d="M 9.34375 -4.546875 L 10.59375 -2.046875 C 10.25 -1.671875 9.796875 -1.359375 9.234375 -1.109375 C 8.671875 -0.867188 8.023438 -0.703125 7.296875 -0.609375 C 5.765625 -0.421875 4.550781 -0.695312 3.65625 -1.4375 C 2.757812 -2.175781 2.210938 -3.34375 2.015625 -4.9375 L 1.203125 -11.65625 L -0.953125 -11.390625 L -1.296875 -14.203125 L 0.859375 -14.46875 L 0.53125 -17.234375 L 4.015625 -18.234375 L 4.40625 -14.890625 L 8.421875 -15.375 L 8.765625 -12.5625 L 4.75 -12.078125 L 5.53125 -5.609375 C 5.613281 -4.898438 5.820312 -4.40625 6.15625 -4.125 C 6.5 -3.84375 6.941406 -3.738281 7.484375 -3.8125 C 8.128906 -3.882812 8.664062 -4.117188 9.09375 -4.515625 Z M 9.34375 -4.546875 "/></g></g><g style="fill:#000000;fill-opacity:1;"><g transform="translate(160.827101, 265.642319)"><path style="stroke:none" d=""/></g></g><g style="fill:#000000;fill-opacity:1;"><g transform="translate(166.716768, 265.007662)"><path style="stroke:none" d="M 8.375 -0.140625 C 7.070312 -0.078125 5.898438 -0.179688 4.859375 -0.453125 C 3.828125 -0.722656 2.957031 -1.101562 2.25 -1.59375 C 1.550781 -2.09375 1.003906 -2.644531 0.609375 -3.25 L 2.53125 -5.859375 L 2.859375 -5.875 C 3.472656 -5.050781 4.226562 -4.410156 5.125 -3.953125 C 6.019531 -3.503906 7.050781 -3.304688 8.21875 -3.359375 C 9.21875 -3.410156 9.960938 -3.65625 10.453125 -4.09375 C 10.941406 -4.539062 11.164062 -5.140625 11.125 -5.890625 C 11.101562 -6.335938 11 -6.707031 10.8125 -7 C 10.632812 -7.289062 10.347656 -7.53125 9.953125 -7.71875 C 9.566406 -7.914062 9.050781 -8.078125 8.40625 -8.203125 L 5.96875 -8.640625 C 4.25 -8.953125 2.953125 -9.535156 2.078125 -10.390625 C 1.203125 -11.242188 0.726562 -12.394531 0.65625 -13.84375 C 0.601562 -14.90625 0.828125 -15.851562 1.328125 -16.6875 C 1.828125 -17.53125 2.570312 -18.203125 3.5625 -18.703125 C 4.5625 -19.203125 5.765625 -19.484375 7.171875 -19.546875 C 8.628906 -19.617188 9.882812 -19.488281 10.9375 -19.15625 C 12 -18.820312 12.910156 -18.273438 13.671875 -17.515625 L 11.953125 -14.890625 L 11.625 -14.875 C 11.0625 -15.414062 10.425781 -15.804688 9.71875 -16.046875 C 9.007812 -16.285156 8.210938 -16.382812 7.328125 -16.34375 C 6.304688 -16.300781 5.539062 -16.085938 5.03125 -15.703125 C 4.519531 -15.316406 4.28125 -14.804688 4.3125 -14.171875 C 4.332031 -13.578125 4.539062 -13.109375 4.9375 -12.765625 C 5.332031 -12.429688 5.992188 -12.1875 6.921875 -12.03125 L 9.421875 -11.640625 C 11.273438 -11.335938 12.640625 -10.742188 13.515625 -9.859375 C 14.390625 -8.972656 14.863281 -7.789062 14.9375 -6.3125 C 14.988281 -5.125 14.78125 -4.082031 14.3125 -3.1875 C 13.84375 -2.289062 13.109375 -1.578125 12.109375 -1.046875 C 11.109375 -0.515625 9.863281 -0.210938 8.375 -0.140625 Z M 8.375 -0.140625 "/></g></g><g style="fill:#000000;fill-opacity:1;"><g transform="translate(182.47224, 264.235241)"><path style="stroke:none" d="M 15.3125 -18.765625 L 15.28125 -15.625 L 9.828125 -15.671875 L 9.6875 0.078125 L 5.96875 0.046875 L 6.109375 -15.703125 L 0.65625 -15.75 L 0.6875 -18.890625 Z M 15.3125 -18.765625 "/></g></g><g style="fill:#000000;fill-opacity:1;"><g transform="translate(197.678183, 264.34718)"><path style="stroke:none" d="M 6.71875 -7.875 L 6.375 -2.71875 L 15.390625 -2.125 L 15.1875 1 L 2.453125 0.15625 L 3.703125 -18.6875 L 16.21875 -17.84375 L 16.015625 -14.734375 L 7.21875 -15.328125 L 6.921875 -10.90625 L 14.609375 -10.390625 L 14.40625 -7.359375 Z M 6.71875 -7.875 "/></g></g><g style="fill:#000000;fill-opacity:1;"><g transform="translate(213.3287, 265.213951)"><path style="stroke:none" d="M 5.8125 0.8125 L 2.421875 0.34375 L 5.046875 -18.359375 L 9.890625 -17.6875 L 12.6875 -3.265625 L 12.953125 -3.234375 L 19.609375 -16.3125 L 24.328125 -15.65625 L 21.703125 3.046875 L 18.203125 2.546875 L 19.9375 -9.8125 L 19.625 -9.890625 L 13.546875 1.90625 L 10.46875 1.46875 L 7.875 -11.546875 L 7.546875 -11.546875 Z M 5.8125 0.8125 "/></g></g><g style="fill:#000000;fill-opacity:1;"><g transform="translate(236.871851, 268.632519)"><path style="stroke:none" d="M 0.78125 6.09375 L 5.046875 -13.484375 L 8.546875 -12.71875 L 8.140625 -10.90625 L 8.390625 -10.8125 C 8.953125 -11.414062 9.613281 -11.820312 10.375 -12.03125 C 11.144531 -12.25 11.992188 -12.257812 12.921875 -12.0625 C 14.046875 -11.820312 14.96875 -11.34375 15.6875 -10.625 C 16.414062 -9.90625 16.894531 -8.953125 17.125 -7.765625 C 17.363281 -6.585938 17.3125 -5.203125 16.96875 -3.609375 C 16.613281 -2.003906 16.070312 -0.722656 15.34375 0.234375 C 14.625 1.203125 13.765625 1.859375 12.765625 2.203125 C 11.773438 2.554688 10.707031 2.609375 9.5625 2.359375 C 8.695312 2.171875 7.976562 1.859375 7.40625 1.421875 C 6.832031 0.992188 6.394531 0.425781 6.09375 -0.28125 L 5.84375 -0.28125 L 4.28125 6.859375 Z M 9.25 -0.828125 C 10.289062 -0.597656 11.148438 -0.765625 11.828125 -1.328125 C 12.515625 -1.890625 13.019531 -2.910156 13.34375 -4.390625 C 13.664062 -5.859375 13.628906 -6.992188 13.234375 -7.796875 C 12.847656 -8.597656 12.132812 -9.113281 11.09375 -9.34375 C 10.113281 -9.550781 9.257812 -9.363281 8.53125 -8.78125 C 7.8125 -8.195312 7.296875 -7.195312 6.984375 -5.78125 C 6.671875 -4.351562 6.722656 -3.222656 7.140625 -2.390625 C 7.566406 -1.554688 8.269531 -1.035156 9.25 -0.828125 Z M 9.25 -0.828125 "/></g></g><g style="fill:#000000;fill-opacity:1;"><g transform="translate(253.181533, 272.274553)"><path style="stroke:none" d="M 7.796875 -14.453125 C 7.171875 -14.617188 6.707031 -14.941406 6.40625 -15.421875 C 6.113281 -15.910156 6.050781 -16.453125 6.21875 -17.046875 C 6.375 -17.640625 6.695312 -18.070312 7.1875 -18.34375 C 7.6875 -18.613281 8.25 -18.664062 8.875 -18.5 C 9.28125 -18.394531 9.625 -18.210938 9.90625 -17.953125 C 10.1875 -17.691406 10.375 -17.382812 10.46875 -17.03125 C 10.570312 -16.675781 10.570312 -16.304688 10.46875 -15.921875 C 10.363281 -15.523438 10.179688 -15.195312 9.921875 -14.9375 C 9.660156 -14.675781 9.34375 -14.503906 8.96875 -14.421875 C 8.59375 -14.335938 8.203125 -14.347656 7.796875 -14.453125 Z M 2 0.53125 L 5.640625 -13.25 L 9.09375 -12.34375 L 5.453125 1.4375 Z M 2 0.53125 "/></g></g><g style="fill:#000000;fill-opacity:1;"><g transform="translate(260.349834, 274.136335)"><path style="stroke:none" d="M 1.96875 0.59375 L 6.078125 -13.046875 L 9.40625 -12.046875 L 8.796875 -10.03125 L 9.03125 -9.890625 C 9.59375 -10.554688 10.195312 -10.984375 10.84375 -11.171875 C 11.488281 -11.367188 12.195312 -11.351562 12.96875 -11.125 C 13.75 -10.894531 14.296875 -10.582031 14.609375 -10.1875 L 13.140625 -7.390625 L 12.859375 -7.4375 C 12.660156 -7.59375 12.460938 -7.722656 12.265625 -7.828125 C 12.078125 -7.941406 11.832031 -8.039062 11.53125 -8.125 C 10.582031 -8.414062 9.753906 -8.300781 9.046875 -7.78125 C 8.347656 -7.257812 7.773438 -6.253906 7.328125 -4.765625 L 5.40625 1.625 Z M 1.96875 0.59375 "/></g></g><g style="fill:#000000;fill-opacity:1;"><g transform="translate(270.706582, 277.190665)"><path style="stroke:none" d="M 15.390625 -1.25 L 6.75 -4.3125 C 6.425781 -3.101562 6.457031 -2.132812 6.84375 -1.40625 C 7.226562 -0.675781 7.910156 -0.132812 8.890625 0.21875 C 9.660156 0.488281 10.335938 0.5625 10.921875 0.4375 C 11.503906 0.320312 12.046875 0.0234375 12.546875 -0.453125 L 12.796875 -0.359375 L 14.515625 1.859375 C 13.753906 2.648438 12.820312 3.179688 11.71875 3.453125 C 10.625 3.722656 9.34375 3.597656 7.875 3.078125 C 6.488281 2.585938 5.382812 1.898438 4.5625 1.015625 C 3.738281 0.128906 3.234375 -0.929688 3.046875 -2.171875 C 2.867188 -3.421875 3.046875 -4.796875 3.578125 -6.296875 C 4.117188 -7.816406 4.863281 -9 5.8125 -9.84375 C 6.769531 -10.695312 7.832031 -11.203125 9 -11.359375 C 10.164062 -11.523438 11.359375 -11.394531 12.578125 -10.96875 C 14.484375 -10.289062 15.757812 -9.265625 16.40625 -7.890625 C 17.0625 -6.523438 17.046875 -4.867188 16.359375 -2.921875 C 16.109375 -2.210938 15.882812 -1.671875 15.6875 -1.296875 Z M 13.28125 -4.46875 C 13.59375 -5.5 13.609375 -6.328125 13.328125 -6.953125 C 13.054688 -7.578125 12.492188 -8.039062 11.640625 -8.34375 C 9.941406 -8.945312 8.597656 -8.320312 7.609375 -6.46875 Z M 13.28125 -4.46875 "/></g></g><g clip-rule="nonzero" clip-path="url(#b07727ad25)"><g clip-rule="nonzero" clip-path="url(#9d0eb5e3eb)"><path style=" stroke:none;fill-rule:nonzero;fill:#ffffff;fill-opacity:1;" d="M 252.945312 348.089844 L 262.867188 348.089844 L 262.867188 357.535156 L 252.945312 357.535156 Z M 252.945312 348.089844 "/></g></g><g style="fill:#ffffff;fill-opacity:1;"><g transform="translate(112.590373, 340.022551)"><path style="stroke:none" d="M 5.5625 0.1875 C 4.6875 0.1875 3.910156 0.078125 3.234375 -0.140625 C 2.554688 -0.359375 1.988281 -0.640625 1.53125 -0.984375 C 1.082031 -1.335938 0.738281 -1.722656 0.5 -2.140625 L 1.875 -3.796875 L 2.078125 -3.796875 C 2.460938 -3.234375 2.941406 -2.785156 3.515625 -2.453125 C 4.097656 -2.128906 4.78125 -1.96875 5.5625 -1.96875 C 6.21875 -1.96875 6.710938 -2.101562 7.046875 -2.375 C 7.390625 -2.65625 7.5625 -3.046875 7.5625 -3.546875 C 7.5625 -3.835938 7.503906 -4.082031 7.390625 -4.28125 C 7.285156 -4.488281 7.109375 -4.660156 6.859375 -4.796875 C 6.609375 -4.941406 6.269531 -5.066406 5.84375 -5.171875 L 4.234375 -5.546875 C 3.097656 -5.796875 2.253906 -6.21875 1.703125 -6.8125 C 1.160156 -7.414062 0.890625 -8.195312 0.890625 -9.15625 C 0.890625 -9.863281 1.066406 -10.484375 1.421875 -11.015625 C 1.773438 -11.554688 2.289062 -11.972656 2.96875 -12.265625 C 3.644531 -12.566406 4.453125 -12.71875 5.390625 -12.71875 C 6.359375 -12.71875 7.1875 -12.585938 7.875 -12.328125 C 8.5625 -12.078125 9.144531 -11.691406 9.625 -11.171875 L 8.390625 -9.484375 L 8.1875 -9.484375 C 7.832031 -9.859375 7.425781 -10.132812 6.96875 -10.3125 C 6.507812 -10.5 5.984375 -10.59375 5.390625 -10.59375 C 4.710938 -10.59375 4.195312 -10.472656 3.84375 -10.234375 C 3.488281 -9.992188 3.3125 -9.664062 3.3125 -9.25 C 3.3125 -8.851562 3.4375 -8.535156 3.6875 -8.296875 C 3.9375 -8.066406 4.363281 -7.882812 4.96875 -7.75 L 6.625 -7.40625 C 7.84375 -7.144531 8.722656 -6.707031 9.265625 -6.09375 C 9.816406 -5.476562 10.09375 -4.679688 10.09375 -3.703125 C 10.09375 -2.910156 9.921875 -2.222656 9.578125 -1.640625 C 9.242188 -1.066406 8.738281 -0.617188 8.0625 -0.296875 C 7.382812 0.0234375 6.550781 0.1875 5.5625 0.1875 Z M 5.5625 0.1875 "/></g><g transform="translate(123.365637, 340.022551)"><path style="stroke:none" d="M 3.6875 0.1875 C 3.082031 0.1875 2.554688 0.078125 2.109375 -0.140625 C 1.660156 -0.367188 1.316406 -0.695312 1.078125 -1.125 C 0.835938 -1.5625 0.71875 -2.082031 0.71875 -2.6875 C 0.71875 -3.25 0.835938 -3.71875 1.078125 -4.09375 C 1.316406 -4.476562 1.6875 -4.789062 2.1875 -5.03125 C 2.695312 -5.28125 3.359375 -5.46875 4.171875 -5.59375 C 4.734375 -5.6875 5.160156 -5.785156 5.453125 -5.890625 C 5.753906 -6.003906 5.953125 -6.128906 6.046875 -6.265625 C 6.148438 -6.398438 6.203125 -6.578125 6.203125 -6.796875 C 6.203125 -7.097656 6.097656 -7.328125 5.890625 -7.484375 C 5.679688 -7.640625 5.332031 -7.71875 4.84375 -7.71875 C 4.3125 -7.71875 3.804688 -7.597656 3.328125 -7.359375 C 2.859375 -7.128906 2.445312 -6.828125 2.09375 -6.453125 L 1.921875 -6.453125 L 0.9375 -7.953125 C 1.414062 -8.484375 2 -8.894531 2.6875 -9.1875 C 3.382812 -9.488281 4.140625 -9.640625 4.953125 -9.640625 C 6.203125 -9.640625 7.109375 -9.375 7.671875 -8.84375 C 8.234375 -8.3125 8.515625 -7.554688 8.515625 -6.578125 L 8.515625 -2.46875 C 8.515625 -2.039062 8.703125 -1.828125 9.078125 -1.828125 C 9.210938 -1.828125 9.351562 -1.851562 9.5 -1.90625 L 9.609375 -1.875 L 9.78125 -0.21875 C 9.65625 -0.132812 9.472656 -0.0664062 9.234375 -0.015625 C 9.003906 0.0351562 8.75 0.0625 8.46875 0.0625 C 7.894531 0.0625 7.445312 -0.0390625 7.125 -0.25 C 6.8125 -0.46875 6.585938 -0.8125 6.453125 -1.28125 L 6.28125 -1.296875 C 5.8125 -0.304688 4.945312 0.1875 3.6875 0.1875 Z M 4.4375 -1.59375 C 4.988281 -1.59375 5.425781 -1.773438 5.75 -2.140625 C 6.082031 -2.515625 6.25 -3.03125 6.25 -3.6875 L 6.25 -4.640625 L 6.09375 -4.6875 C 5.945312 -4.570312 5.753906 -4.472656 5.515625 -4.390625 C 5.285156 -4.316406 4.957031 -4.242188 4.53125 -4.171875 C 4.007812 -4.078125 3.632812 -3.925781 3.40625 -3.71875 C 3.1875 -3.507812 3.078125 -3.21875 3.078125 -2.84375 C 3.078125 -2.4375 3.195312 -2.125 3.4375 -1.90625 C 3.675781 -1.695312 4.007812 -1.59375 4.4375 -1.59375 Z M 4.4375 -1.59375 "/></g><g transform="translate(133.343051, 340.022551)"><path style="stroke:none" d="M 4.671875 0.1875 C 3.921875 0.1875 3.257812 0.00390625 2.6875 -0.359375 C 2.113281 -0.722656 1.660156 -1.269531 1.328125 -2 C 1.003906 -2.738281 0.84375 -3.644531 0.84375 -4.71875 C 0.84375 -5.800781 1.007812 -6.707031 1.34375 -7.4375 C 1.6875 -8.175781 2.148438 -8.726562 2.734375 -9.09375 C 3.328125 -9.457031 4.015625 -9.640625 4.796875 -9.640625 C 5.378906 -9.640625 5.882812 -9.535156 6.3125 -9.328125 C 6.75 -9.128906 7.117188 -8.816406 7.421875 -8.390625 L 7.59375 -8.421875 L 7.59375 -13.25 L 9.96875 -13.25 L 9.96875 0 L 7.59375 0 L 7.59375 -1.21875 L 7.421875 -1.265625 C 7.148438 -0.816406 6.785156 -0.460938 6.328125 -0.203125 C 5.878906 0.0546875 5.328125 0.1875 4.671875 0.1875 Z M 5.453125 -1.828125 C 6.117188 -1.828125 6.644531 -2.066406 7.03125 -2.546875 C 7.414062 -3.023438 7.609375 -3.75 7.609375 -4.71875 C 7.609375 -5.695312 7.414062 -6.425781 7.03125 -6.90625 C 6.644531 -7.382812 6.117188 -7.625 5.453125 -7.625 C 4.753906 -7.625 4.21875 -7.390625 3.84375 -6.921875 C 3.476562 -6.453125 3.296875 -5.71875 3.296875 -4.71875 C 3.296875 -3.726562 3.476562 -3 3.84375 -2.53125 C 4.21875 -2.0625 4.753906 -1.828125 5.453125 -1.828125 Z M 5.453125 -1.828125 "/></g><g transform="translate(144.68453, 340.022551)"><path style="stroke:none" d="M 3.6875 0.1875 C 3.082031 0.1875 2.554688 0.078125 2.109375 -0.140625 C 1.660156 -0.367188 1.316406 -0.695312 1.078125 -1.125 C 0.835938 -1.5625 0.71875 -2.082031 0.71875 -2.6875 C 0.71875 -3.25 0.835938 -3.71875 1.078125 -4.09375 C 1.316406 -4.476562 1.6875 -4.789062 2.1875 -5.03125 C 2.695312 -5.28125 3.359375 -5.46875 4.171875 -5.59375 C 4.734375 -5.6875 5.160156 -5.785156 5.453125 -5.890625 C 5.753906 -6.003906 5.953125 -6.128906 6.046875 -6.265625 C 6.148438 -6.398438 6.203125 -6.578125 6.203125 -6.796875 C 6.203125 -7.097656 6.097656 -7.328125 5.890625 -7.484375 C 5.679688 -7.640625 5.332031 -7.71875 4.84375 -7.71875 C 4.3125 -7.71875 3.804688 -7.597656 3.328125 -7.359375 C 2.859375 -7.128906 2.445312 -6.828125 2.09375 -6.453125 L 1.921875 -6.453125 L 0.9375 -7.953125 C 1.414062 -8.484375 2 -8.894531 2.6875 -9.1875 C 3.382812 -9.488281 4.140625 -9.640625 4.953125 -9.640625 C 6.203125 -9.640625 7.109375 -9.375 7.671875 -8.84375 C 8.234375 -8.3125 8.515625 -7.554688 8.515625 -6.578125 L 8.515625 -2.46875 C 8.515625 -2.039062 8.703125 -1.828125 9.078125 -1.828125 C 9.210938 -1.828125 9.351562 -1.851562 9.5 -1.90625 L 9.609375 -1.875 L 9.78125 -0.21875 C 9.65625 -0.132812 9.472656 -0.0664062 9.234375 -0.015625 C 9.003906 0.0351562 8.75 0.0625 8.46875 0.0625 C 7.894531 0.0625 7.445312 -0.0390625 7.125 -0.25 C 6.8125 -0.46875 6.585938 -0.8125 6.453125 -1.28125 L 6.28125 -1.296875 C 5.8125 -0.304688 4.945312 0.1875 3.6875 0.1875 Z M 4.4375 -1.59375 C 4.988281 -1.59375 5.425781 -1.773438 5.75 -2.140625 C 6.082031 -2.515625 6.25 -3.03125 6.25 -3.6875 L 6.25 -4.640625 L 6.09375 -4.6875 C 5.945312 -4.570312 5.753906 -4.472656 5.515625 -4.390625 C 5.285156 -4.316406 4.957031 -4.242188 4.53125 -4.171875 C 4.007812 -4.078125 3.632812 -3.925781 3.40625 -3.71875 C 3.1875 -3.507812 3.078125 -3.21875 3.078125 -2.84375 C 3.078125 -2.4375 3.195312 -2.125 3.4375 -1.90625 C 3.675781 -1.695312 4.007812 -1.59375 4.4375 -1.59375 Z M 4.4375 -1.59375 "/></g></g><g style="fill:#ffffff;fill-opacity:1;"><g transform="translate(154.550417, 340.022551)"><path style="stroke:none" d="M 6.53125 -2.25 L 7.140625 -0.5 C 6.878906 -0.289062 6.554688 -0.125 6.171875 0 C 5.785156 0.125 5.347656 0.1875 4.859375 0.1875 C 3.828125 0.1875 3.046875 -0.0859375 2.515625 -0.640625 C 1.984375 -1.203125 1.71875 -2.019531 1.71875 -3.09375 L 1.71875 -7.578125 L 0.28125 -7.578125 L 0.28125 -9.46875 L 1.71875 -9.46875 L 1.71875 -11.3125 L 4.09375 -11.703125 L 4.09375 -9.46875 L 6.78125 -9.46875 L 6.78125 -7.578125 L 4.09375 -7.578125 L 4.09375 -3.265625 C 4.09375 -2.796875 4.191406 -2.453125 4.390625 -2.234375 C 4.585938 -2.015625 4.867188 -1.90625 5.234375 -1.90625 C 5.660156 -1.90625 6.03125 -2.019531 6.34375 -2.25 Z M 6.53125 -2.25 "/></g><g transform="translate(161.902647, 340.022551)"><path style="stroke:none" d=""/></g><g transform="translate(166.046319, 340.022551)"><path style="stroke:none" d="M 1.359375 3.828125 L 1.359375 -9.453125 L 3.734375 -9.453125 L 3.734375 -8.21875 L 3.921875 -8.1875 C 4.203125 -8.664062 4.578125 -9.023438 5.046875 -9.265625 C 5.515625 -9.515625 6.0625 -9.640625 6.6875 -9.640625 C 7.445312 -9.640625 8.109375 -9.457031 8.671875 -9.09375 C 9.242188 -8.738281 9.6875 -8.191406 10 -7.453125 C 10.320312 -6.722656 10.484375 -5.8125 10.484375 -4.71875 C 10.484375 -3.644531 10.316406 -2.738281 9.984375 -2 C 9.648438 -1.269531 9.1875 -0.722656 8.59375 -0.359375 C 8 0.00390625 7.3125 0.1875 6.53125 0.1875 C 5.945312 0.1875 5.4375 0.0859375 5 -0.109375 C 4.570312 -0.304688 4.210938 -0.613281 3.921875 -1.03125 L 3.734375 -1 L 3.734375 3.828125 Z M 5.875 -1.828125 C 6.582031 -1.828125 7.117188 -2.054688 7.484375 -2.515625 C 7.847656 -2.984375 8.03125 -3.71875 8.03125 -4.71875 C 8.03125 -5.71875 7.847656 -6.453125 7.484375 -6.921875 C 7.117188 -7.390625 6.582031 -7.625 5.875 -7.625 C 5.207031 -7.625 4.679688 -7.382812 4.296875 -6.90625 C 3.910156 -6.425781 3.71875 -5.695312 3.71875 -4.71875 C 3.71875 -3.757812 3.910156 -3.035156 4.296875 -2.546875 C 4.679688 -2.066406 5.207031 -1.828125 5.875 -1.828125 Z M 5.875 -1.828125 "/></g><g transform="translate(177.37922, 340.022551)"><path style="stroke:none" d="M 3.6875 0.1875 C 3.082031 0.1875 2.554688 0.078125 2.109375 -0.140625 C 1.660156 -0.367188 1.316406 -0.695312 1.078125 -1.125 C 0.835938 -1.5625 0.71875 -2.082031 0.71875 -2.6875 C 0.71875 -3.25 0.835938 -3.71875 1.078125 -4.09375 C 1.316406 -4.476562 1.6875 -4.789062 2.1875 -5.03125 C 2.695312 -5.28125 3.359375 -5.46875 4.171875 -5.59375 C 4.734375 -5.6875 5.160156 -5.785156 5.453125 -5.890625 C 5.753906 -6.003906 5.953125 -6.128906 6.046875 -6.265625 C 6.148438 -6.398438 6.203125 -6.578125 6.203125 -6.796875 C 6.203125 -7.097656 6.097656 -7.328125 5.890625 -7.484375 C 5.679688 -7.640625 5.332031 -7.71875 4.84375 -7.71875 C 4.3125 -7.71875 3.804688 -7.597656 3.328125 -7.359375 C 2.859375 -7.128906 2.445312 -6.828125 2.09375 -6.453125 L 1.921875 -6.453125 L 0.9375 -7.953125 C 1.414062 -8.484375 2 -8.894531 2.6875 -9.1875 C 3.382812 -9.488281 4.140625 -9.640625 4.953125 -9.640625 C 6.203125 -9.640625 7.109375 -9.375 7.671875 -8.84375 C 8.234375 -8.3125 8.515625 -7.554688 8.515625 -6.578125 L 8.515625 -2.46875 C 8.515625 -2.039062 8.703125 -1.828125 9.078125 -1.828125 C 9.210938 -1.828125 9.351562 -1.851562 9.5 -1.90625 L 9.609375 -1.875 L 9.78125 -0.21875 C 9.65625 -0.132812 9.472656 -0.0664062 9.234375 -0.015625 C 9.003906 0.0351562 8.75 0.0625 8.46875 0.0625 C 7.894531 0.0625 7.445312 -0.0390625 7.125 -0.25 C 6.8125 -0.46875 6.585938 -0.8125 6.453125 -1.28125 L 6.28125 -1.296875 C 5.8125 -0.304688 4.945312 0.1875 3.6875 0.1875 Z M 4.4375 -1.59375 C 4.988281 -1.59375 5.425781 -1.773438 5.75 -2.140625 C 6.082031 -2.515625 6.25 -3.03125 6.25 -3.6875 L 6.25 -4.640625 L 6.09375 -4.6875 C 5.945312 -4.570312 5.753906 -4.472656 5.515625 -4.390625 C 5.285156 -4.316406 4.957031 -4.242188 4.53125 -4.171875 C 4.007812 -4.078125 3.632812 -3.925781 3.40625 -3.71875 C 3.1875 -3.507812 3.078125 -3.21875 3.078125 -2.84375 C 3.078125 -2.4375 3.195312 -2.125 3.4375 -1.90625 C 3.675781 -1.695312 4.007812 -1.59375 4.4375 -1.59375 Z M 4.4375 -1.59375 "/></g></g><g style="fill:#ffffff;fill-opacity:1;"><g transform="translate(187.245106, 340.022551)"><path style="stroke:none" d="M 6.53125 -2.25 L 7.140625 -0.5 C 6.878906 -0.289062 6.554688 -0.125 6.171875 0 C 5.785156 0.125 5.347656 0.1875 4.859375 0.1875 C 3.828125 0.1875 3.046875 -0.0859375 2.515625 -0.640625 C 1.984375 -1.203125 1.71875 -2.019531 1.71875 -3.09375 L 1.71875 -7.578125 L 0.28125 -7.578125 L 0.28125 -9.46875 L 1.71875 -9.46875 L 1.71875 -11.3125 L 4.09375 -11.703125 L 4.09375 -9.46875 L 6.78125 -9.46875 L 6.78125 -7.578125 L 4.09375 -7.578125 L 4.09375 -3.265625 C 4.09375 -2.796875 4.191406 -2.453125 4.390625 -2.234375 C 4.585938 -2.015625 4.867188 -1.90625 5.234375 -1.90625 C 5.660156 -1.90625 6.03125 -2.019531 6.34375 -2.25 Z M 6.53125 -2.25 "/></g><g transform="translate(194.597336, 340.022551)"><path style="stroke:none" d="M 1.359375 0 L 1.359375 -13.25 L 3.734375 -13.25 L 3.734375 -8.21875 L 3.921875 -8.1875 C 4.234375 -8.65625 4.617188 -9.015625 5.078125 -9.265625 C 5.535156 -9.515625 6.085938 -9.640625 6.734375 -9.640625 C 8.816406 -9.640625 9.859375 -8.457031 9.859375 -6.09375 L 9.859375 0 L 7.484375 0 L 7.484375 -5.78125 C 7.484375 -6.425781 7.351562 -6.894531 7.09375 -7.1875 C 6.84375 -7.476562 6.445312 -7.625 5.90625 -7.625 C 5.238281 -7.625 4.707031 -7.398438 4.3125 -6.953125 C 3.925781 -6.515625 3.734375 -5.828125 3.734375 -4.890625 L 3.734375 0 Z M 1.359375 0 "/></g></g><g style="fill:#ffffff;fill-opacity:1;"><g transform="translate(205.612813, 340.022551)"><path style="stroke:none" d="M 5.078125 0 L 2.59375 0 L 0.34375 -9.453125 L 2.546875 -9.453125 L 3.9375 -3.0625 L 4.109375 -3.0625 L 5.921875 -9.453125 L 7.96875 -9.453125 L 9.84375 -3.0625 L 10.015625 -3.0625 L 11.359375 -9.453125 L 13.5 -9.453125 L 11.28125 0 L 8.78125 0 L 6.984375 -6.4375 L 6.8125 -6.4375 Z M 5.078125 0 "/></g></g><g style="fill:#ffffff;fill-opacity:1;"><g transform="translate(219.304947, 340.022551)"><path style="stroke:none" d="M 3.6875 0.1875 C 3.082031 0.1875 2.554688 0.078125 2.109375 -0.140625 C 1.660156 -0.367188 1.316406 -0.695312 1.078125 -1.125 C 0.835938 -1.5625 0.71875 -2.082031 0.71875 -2.6875 C 0.71875 -3.25 0.835938 -3.71875 1.078125 -4.09375 C 1.316406 -4.476562 1.6875 -4.789062 2.1875 -5.03125 C 2.695312 -5.28125 3.359375 -5.46875 4.171875 -5.59375 C 4.734375 -5.6875 5.160156 -5.785156 5.453125 -5.890625 C 5.753906 -6.003906 5.953125 -6.128906 6.046875 -6.265625 C 6.148438 -6.398438 6.203125 -6.578125 6.203125 -6.796875 C 6.203125 -7.097656 6.097656 -7.328125 5.890625 -7.484375 C 5.679688 -7.640625 5.332031 -7.71875 4.84375 -7.71875 C 4.3125 -7.71875 3.804688 -7.597656 3.328125 -7.359375 C 2.859375 -7.128906 2.445312 -6.828125 2.09375 -6.453125 L 1.921875 -6.453125 L 0.9375 -7.953125 C 1.414062 -8.484375 2 -8.894531 2.6875 -9.1875 C 3.382812 -9.488281 4.140625 -9.640625 4.953125 -9.640625 C 6.203125 -9.640625 7.109375 -9.375 7.671875 -8.84375 C 8.234375 -8.3125 8.515625 -7.554688 8.515625 -6.578125 L 8.515625 -2.46875 C 8.515625 -2.039062 8.703125 -1.828125 9.078125 -1.828125 C 9.210938 -1.828125 9.351562 -1.851562 9.5 -1.90625 L 9.609375 -1.875 L 9.78125 -0.21875 C 9.65625 -0.132812 9.472656 -0.0664062 9.234375 -0.015625 C 9.003906 0.0351562 8.75 0.0625 8.46875 0.0625 C 7.894531 0.0625 7.445312 -0.0390625 7.125 -0.25 C 6.8125 -0.46875 6.585938 -0.8125 6.453125 -1.28125 L 6.28125 -1.296875 C 5.8125 -0.304688 4.945312 0.1875 3.6875 0.1875 Z M 4.4375 -1.59375 C 4.988281 -1.59375 5.425781 -1.773438 5.75 -2.140625 C 6.082031 -2.515625 6.25 -3.03125 6.25 -3.6875 L 6.25 -4.640625 L 6.09375 -4.6875 C 5.945312 -4.570312 5.753906 -4.472656 5.515625 -4.390625 C 5.285156 -4.316406 4.957031 -4.242188 4.53125 -4.171875 C 4.007812 -4.078125 3.632812 -3.925781 3.40625 -3.71875 C 3.1875 -3.507812 3.078125 -3.21875 3.078125 -2.84375 C 3.078125 -2.4375 3.195312 -2.125 3.4375 -1.90625 C 3.675781 -1.695312 4.007812 -1.59375 4.4375 -1.59375 Z M 4.4375 -1.59375 "/></g></g><g style="fill:#ffffff;fill-opacity:1;"><g transform="translate(229.102201, 340.022551)"><path style="stroke:none" d="M 2.09375 4.015625 C 1.6875 4.015625 1.316406 3.984375 0.984375 3.921875 C 0.660156 3.859375 0.394531 3.773438 0.1875 3.671875 L 0.5625 1.75 L 0.71875 1.703125 C 0.863281 1.773438 1.039062 1.832031 1.25 1.875 C 1.457031 1.925781 1.675781 1.953125 1.90625 1.953125 C 2.289062 1.953125 2.609375 1.898438 2.859375 1.796875 C 3.109375 1.691406 3.320312 1.523438 3.5 1.296875 C 3.675781 1.066406 3.835938 0.742188 3.984375 0.328125 L 0.203125 -9.453125 L 2.6875 -9.453125 L 5.046875 -2.875 L 5.25 -2.875 L 7.53125 -9.453125 L 9.953125 -9.453125 L 6.15625 0.59375 C 5.851562 1.40625 5.519531 2.054688 5.15625 2.546875 C 4.789062 3.046875 4.359375 3.414062 3.859375 3.65625 C 3.367188 3.894531 2.78125 4.015625 2.09375 4.015625 Z M 2.09375 4.015625 "/></g><g transform="translate(239.259775, 340.022551)"><path style="stroke:none" d=""/></g><g transform="translate(243.403447, 340.022551)"><path style="stroke:none" d="M 6.53125 -2.25 L 7.140625 -0.5 C 6.878906 -0.289062 6.554688 -0.125 6.171875 0 C 5.785156 0.125 5.347656 0.1875 4.859375 0.1875 C 3.828125 0.1875 3.046875 -0.0859375 2.515625 -0.640625 C 1.984375 -1.203125 1.71875 -2.019531 1.71875 -3.09375 L 1.71875 -7.578125 L 0.28125 -7.578125 L 0.28125 -9.46875 L 1.71875 -9.46875 L 1.71875 -11.3125 L 4.09375 -11.703125 L 4.09375 -9.46875 L 6.78125 -9.46875 L 6.78125 -7.578125 L 4.09375 -7.578125 L 4.09375 -3.265625 C 4.09375 -2.796875 4.191406 -2.453125 4.390625 -2.234375 C 4.585938 -2.015625 4.867188 -1.90625 5.234375 -1.90625 C 5.660156 -1.90625 6.03125 -2.019531 6.34375 -2.25 Z M 6.53125 -2.25 "/></g></g><g style="fill:#ffffff;fill-opacity:1;"><g transform="translate(250.64415, 340.022551)"><path style="stroke:none" d="M 5.5 0.1875 C 4.570312 0.1875 3.753906 0 3.046875 -0.375 C 2.347656 -0.757812 1.804688 -1.320312 1.421875 -2.0625 C 1.035156 -2.800781 0.84375 -3.6875 0.84375 -4.71875 C 0.84375 -5.757812 1.035156 -6.648438 1.421875 -7.390625 C 1.804688 -8.128906 2.347656 -8.6875 3.046875 -9.0625 C 3.753906 -9.445312 4.570312 -9.640625 5.5 -9.640625 C 6.425781 -9.640625 7.238281 -9.445312 7.9375 -9.0625 C 8.632812 -8.6875 9.175781 -8.128906 9.5625 -7.390625 C 9.957031 -6.648438 10.15625 -5.757812 10.15625 -4.71875 C 10.15625 -3.6875 9.957031 -2.800781 9.5625 -2.0625 C 9.175781 -1.320312 8.632812 -0.757812 7.9375 -0.375 C 7.238281 0 6.425781 0.1875 5.5 0.1875 Z M 5.5 -1.828125 C 6.96875 -1.828125 7.703125 -2.789062 7.703125 -4.71875 C 7.703125 -5.71875 7.507812 -6.453125 7.125 -6.921875 C 6.75 -7.390625 6.207031 -7.625 5.5 -7.625 C 4.03125 -7.625 3.296875 -6.65625 3.296875 -4.71875 C 3.296875 -2.789062 4.03125 -1.828125 5.5 -1.828125 Z M 5.5 -1.828125 "/></g></g><g style="fill:#ffffff;fill-opacity:1;"><g transform="translate(163.103711, 363.449026)"><path style="stroke:none" d="M 5.5625 0.1875 C 4.6875 0.1875 3.910156 0.078125 3.234375 -0.140625 C 2.554688 -0.359375 1.988281 -0.640625 1.53125 -0.984375 C 1.082031 -1.335938 0.738281 -1.722656 0.5 -2.140625 L 1.875 -3.796875 L 2.078125 -3.796875 C 2.460938 -3.234375 2.941406 -2.785156 3.515625 -2.453125 C 4.097656 -2.128906 4.78125 -1.96875 5.5625 -1.96875 C 6.21875 -1.96875 6.710938 -2.101562 7.046875 -2.375 C 7.390625 -2.65625 7.5625 -3.046875 7.5625 -3.546875 C 7.5625 -3.835938 7.503906 -4.082031 7.390625 -4.28125 C 7.285156 -4.488281 7.109375 -4.660156 6.859375 -4.796875 C 6.609375 -4.941406 6.269531 -5.066406 5.84375 -5.171875 L 4.234375 -5.546875 C 3.097656 -5.796875 2.253906 -6.21875 1.703125 -6.8125 C 1.160156 -7.414062 0.890625 -8.195312 0.890625 -9.15625 C 0.890625 -9.863281 1.066406 -10.484375 1.421875 -11.015625 C 1.773438 -11.554688 2.289062 -11.972656 2.96875 -12.265625 C 3.644531 -12.566406 4.453125 -12.71875 5.390625 -12.71875 C 6.359375 -12.71875 7.1875 -12.585938 7.875 -12.328125 C 8.5625 -12.078125 9.144531 -11.691406 9.625 -11.171875 L 8.390625 -9.484375 L 8.1875 -9.484375 C 7.832031 -9.859375 7.425781 -10.132812 6.96875 -10.3125 C 6.507812 -10.5 5.984375 -10.59375 5.390625 -10.59375 C 4.710938 -10.59375 4.195312 -10.472656 3.84375 -10.234375 C 3.488281 -9.992188 3.3125 -9.664062 3.3125 -9.25 C 3.3125 -8.851562 3.4375 -8.535156 3.6875 -8.296875 C 3.9375 -8.066406 4.363281 -7.882812 4.96875 -7.75 L 6.625 -7.40625 C 7.84375 -7.144531 8.722656 -6.707031 9.265625 -6.09375 C 9.816406 -5.476562 10.09375 -4.679688 10.09375 -3.703125 C 10.09375 -2.910156 9.921875 -2.222656 9.578125 -1.640625 C 9.242188 -1.066406 8.738281 -0.617188 8.0625 -0.296875 C 7.382812 0.0234375 6.550781 0.1875 5.5625 0.1875 Z M 5.5625 0.1875 "/></g></g><g style="fill:#ffffff;fill-opacity:1;"><g transform="translate(173.733132, 363.449026)"><path style="stroke:none" d="M 10.046875 -12.53125 L 10.046875 -10.453125 L 6.4375 -10.453125 L 6.4375 0 L 3.96875 0 L 3.96875 -10.453125 L 0.34375 -10.453125 L 0.34375 -12.53125 Z M 10.046875 -12.53125 "/></g><g transform="translate(184.130918, 363.449026)"><path style="stroke:none" d="M 4.109375 -5.5 L 4.109375 -2.078125 L 10.09375 -2.078125 L 10.09375 0 L 1.625 0 L 1.625 -12.53125 L 9.953125 -12.53125 L 9.953125 -10.46875 L 4.109375 -10.46875 L 4.109375 -7.53125 L 9.21875 -7.53125 L 9.21875 -5.5 Z M 4.109375 -5.5 "/></g><g transform="translate(194.914761, 363.449026)"><path style="stroke:none" d="M 3.90625 0 L 1.625 0 L 1.625 -12.53125 L 4.875 -12.53125 L 8.046875 -3.3125 L 8.21875 -3.3125 L 11.375 -12.53125 L 14.546875 -12.53125 L 14.546875 0 L 12.1875 0 L 12.1875 -8.28125 L 11.984375 -8.3125 L 9.078125 0 L 7.015625 0 L 4.109375 -8.3125 L 3.90625 -8.28125 Z M 3.90625 0 "/></g></g></g></svg>