<svg width="38" height="38" viewBox="0 0 38 38" fill="none" xmlns="http://www.w3.org/2000/svg">
<g clip-path="url(#clip0_10_10967)">
<path d="M32.432 5.56798C25.0086 -1.85544 12.9924 -1.85655 5.56798 5.56798C-1.85544 12.9914 -1.85655 25.0075 5.56798 32.432C12.9914 39.8554 25.0075 39.8565 32.432 32.432C39.8553 25.0086 39.8565 12.9925 32.432 5.56798ZM19 34.8752C10.2464 34.8752 3.12474 27.7535 3.12474 19C3.12474 10.2464 10.2464 3.12481 19 3.12481C27.7535 3.12481 34.8751 10.2464 34.8751 19C34.8751 27.7536 27.7535 34.8752 19 34.8752Z" fill="white"/>
<path d="M22.1697 11.8921C21.3079 11.8921 20.6094 12.5906 20.6094 13.4524V24.5476C20.6094 25.4094 21.3079 26.1079 22.1697 26.1079C23.0314 26.1079 23.7299 25.4094 23.7299 24.5476V13.4524C23.7299 12.5906 23.0314 11.8921 22.1697 11.8921Z" fill="white"/>
<path d="M15.8298 11.8921C14.9681 11.8921 14.2695 12.5906 14.2695 13.4524V24.5476C14.2695 25.4094 14.9681 26.1079 15.8298 26.1079C16.6915 26.1079 17.3901 25.4094 17.3901 24.5476V13.4524C17.3901 12.5906 16.6916 11.8921 15.8298 11.8921Z" fill="white"/>
</g>
<defs>
<clipPath id="clip0_10_10967">
<rect width="38" height="38" fill="white"/>
</clipPath>
</defs>
</svg>
