<svg xmlns="http://www.w3.org/2000/svg" xmlns:xlink="http://www.w3.org/1999/xlink" width="500" zoomAndPan="magnify" viewBox="0 0 375 374.999991" height="500" preserveAspectRatio="xMidYMid meet" version="1.2"><defs><clipPath id="092a3ca7e4"><path d="M 106 63.832031 L 269 63.832031 L 269 229 L 106 229 Z M 106 63.832031 "/></clipPath><clipPath id="2813a5f1f7"><path d="M 266 244 L 315.964844 244 L 315.964844 289.582031 L 266 289.582031 Z M 266 244 "/></clipPath><clipPath id="48e7eb2250"><path d="M 58.714844 244 L 109 244 L 109 289.582031 L 58.714844 289.582031 Z M 58.714844 244 "/></clipPath><clipPath id="c5f3b082fe"><path d="M 133.335938 297.804688 L 140.152344 297.804688 L 140.152344 304.289062 L 133.335938 304.289062 Z M 133.335938 297.804688 "/></clipPath><clipPath id="ad63511598"><path d="M 136.742188 297.804688 L 137.542969 300.28125 L 140.144531 300.28125 L 138.039062 301.8125 L 138.84375 304.289062 L 136.742188 302.757812 L 134.636719 304.289062 L 135.441406 301.8125 L 133.335938 300.28125 L 135.9375 300.28125 Z M 136.742188 297.804688 "/></clipPath><clipPath id="7f49e3dc99"><path d="M 232.453125 297.804688 L 239.269531 297.804688 L 239.269531 304.289062 L 232.453125 304.289062 Z M 232.453125 297.804688 "/></clipPath><clipPath id="f4c876a4f3"><path d="M 235.855469 297.804688 L 236.65625 300.28125 L 239.257812 300.28125 L 237.15625 301.8125 L 237.957031 304.289062 L 235.855469 302.757812 L 233.75 304.289062 L 234.554688 301.8125 L 232.453125 300.28125 L 235.050781 300.28125 Z M 235.855469 297.804688 "/></clipPath></defs><g id="0ffe5b9fac"><path style=" stroke:none;fill-rule:nonzero;fill:#eb6a18;fill-opacity:1;" d="M 250.390625 160.613281 L 250.390625 99.351562 L 191.761719 83.382812 L 191.761719 160.613281 L 250.390625 160.613281 "/><g clip-rule="nonzero" clip-path="url(#092a3ca7e4)"><path style=" stroke:none;fill-rule:nonzero;fill:#1d333b;fill-opacity:1;" d="M 187.273438 63.839844 L 106.503906 85.839844 L 106.503906 185.058594 C 106.503906 201.082031 111.15625 216.015625 119.179688 228.582031 C 122.054688 227.570312 124.953125 226.621094 127.871094 225.734375 C 119.71875 213.847656 115.328125 199.792969 115.328125 185.058594 L 115.328125 92.59375 L 187.273438 73 L 259.214844 92.59375 L 259.214844 185.058594 C 259.214844 199.777344 254.835938 213.816406 246.699219 225.695312 C 249.617188 226.578125 252.515625 227.527344 255.390625 228.539062 C 263.402344 215.980469 268.039062 201.0625 268.039062 185.058594 L 268.039062 85.839844 L 187.273438 63.839844 "/></g><path style=" stroke:none;fill-rule:nonzero;fill:#1d333b;fill-opacity:1;" d="M 187.347656 253.621094 C 175.113281 253.621094 163.070312 254.925781 151.308594 257.503906 C 162.136719 262.910156 174.351562 265.949219 187.273438 265.949219 C 200.210938 265.949219 212.441406 262.898438 223.28125 257.480469 C 211.554688 254.917969 199.546875 253.621094 187.347656 253.621094 "/><path style=" stroke:none;fill-rule:nonzero;fill:#eb6a18;fill-opacity:1;" d="M 290.972656 185.007812 C 290.972656 185.007812 285.910156 186.773438 282.597656 190.527344 C 282.695312 188.710938 282.75 186.890625 282.75 185.058594 L 282.75 183.316406 C 291.191406 180.480469 290.664062 168.125 290.664062 168.125 C 290.664062 168.125 285.808594 170.195312 282.75 174.101562 L 282.75 167.085938 C 291.191406 164.25 290.664062 151.898438 290.664062 151.898438 C 290.664062 151.898438 285.808594 153.96875 282.75 157.875 L 282.75 150.855469 C 291.191406 148.019531 290.664062 135.667969 290.664062 135.667969 C 290.664062 135.667969 285.808594 137.738281 282.75 141.644531 L 282.75 134.625 C 291.191406 131.792969 290.664062 119.4375 290.664062 119.4375 C 290.664062 119.4375 285.808594 121.507812 282.75 125.410156 L 282.75 118.394531 C 291.191406 115.5625 290.664062 103.207031 290.664062 103.207031 C 290.664062 103.207031 285.808594 105.277344 282.75 109.179688 L 282.75 102.167969 C 291.191406 99.332031 290.664062 86.976562 290.664062 86.976562 C 290.664062 86.976562 285.808594 89.046875 282.75 92.953125 L 282.75 90.074219 C 290.699219 83.851562 281.28125 73 281.28125 73 C 281.28125 73 271.859375 83.851562 279.808594 90.074219 L 279.808594 92.953125 C 276.75 89.046875 271.898438 86.976562 271.898438 86.976562 C 271.898438 86.976562 271.367188 99.332031 279.808594 102.167969 L 279.808594 109.183594 C 276.75 105.277344 271.898438 103.207031 271.898438 103.207031 C 271.898438 103.207031 271.367188 115.5625 279.808594 118.394531 L 279.808594 125.410156 C 276.75 121.507812 271.898438 119.4375 271.898438 119.4375 C 271.898438 119.4375 271.367188 131.792969 279.808594 134.625 L 279.808594 141.644531 C 276.75 137.738281 271.898438 135.667969 271.898438 135.667969 C 271.898438 135.667969 271.367188 148.019531 279.808594 150.855469 L 279.808594 157.875 C 276.75 153.96875 271.898438 151.898438 271.898438 151.898438 C 271.898438 151.898438 271.367188 164.25 279.808594 167.085938 L 279.808594 174.101562 C 276.75 170.195312 271.898438 168.125 271.898438 168.125 C 271.898438 168.125 271.367188 180.480469 279.808594 183.316406 L 279.808594 185.058594 C 279.808594 186.757812 279.761719 188.453125 279.671875 190.136719 C 276.875 186.09375 272.25 183.742188 272.25 183.742188 C 272.25 183.742188 270.929688 195.640625 278.730469 199.257812 C 277.582031 206.765625 275.507812 214.085938 272.53125 221.136719 C 270.816406 225.199219 268.828125 229.109375 266.574219 232.851562 C 267.488281 233.234375 268.398438 233.625 269.304688 234.023438 C 271.542969 230.265625 273.523438 226.347656 275.242188 222.28125 C 278.3125 215.011719 280.449219 207.46875 281.636719 199.730469 C 290.65625 197.765625 290.972656 185.007812 290.972656 185.007812 "/><path style=" stroke:none;fill-rule:nonzero;fill:#eb6a18;fill-opacity:1;" d="M 95.761719 198.925781 C 102.546875 195.515625 102.804688 185.007812 102.804688 185.007812 C 102.804688 185.007812 98.171875 186.625 94.867188 190.050781 C 94.78125 188.394531 94.734375 186.730469 94.734375 185.058594 L 94.734375 183.261719 C 103.019531 180.332031 102.496094 168.125 102.496094 168.125 C 102.496094 168.125 97.800781 170.132812 94.734375 173.914062 L 94.734375 167.035156 C 103.019531 164.101562 102.496094 151.898438 102.496094 151.898438 C 102.496094 151.898438 97.800781 153.902344 94.734375 157.683594 L 94.734375 150.804688 C 103.019531 147.871094 102.496094 135.667969 102.496094 135.667969 C 102.496094 135.667969 97.800781 137.671875 94.734375 141.453125 L 94.734375 134.574219 C 103.019531 131.644531 102.496094 119.4375 102.496094 119.4375 C 102.496094 119.4375 97.800781 121.441406 94.734375 125.222656 L 94.734375 118.34375 C 103.019531 115.410156 102.496094 103.207031 102.496094 103.207031 C 102.496094 103.207031 97.800781 105.210938 94.734375 108.992188 L 94.734375 102.113281 C 103.019531 99.183594 102.496094 86.976562 102.496094 86.976562 C 102.496094 86.976562 97.800781 88.980469 94.734375 92.765625 L 94.734375 89.957031 C 102.414062 83.714844 93.113281 73 93.113281 73 C 93.113281 73 83.570312 83.992188 91.792969 90.195312 L 91.792969 93.152344 C 88.746094 89.117188 83.730469 86.976562 83.730469 86.976562 C 83.730469 86.976562 83.195312 99.480469 91.792969 102.214844 L 91.792969 109.378906 C 88.746094 105.347656 83.730469 103.207031 83.730469 103.207031 C 83.730469 103.207031 83.195312 115.707031 91.792969 118.449219 L 91.792969 125.609375 C 88.746094 121.578125 83.730469 119.4375 83.730469 119.4375 C 83.730469 119.4375 83.195312 131.9375 91.792969 134.675781 L 91.792969 141.839844 C 88.746094 137.808594 83.730469 135.667969 83.730469 135.667969 C 83.730469 135.667969 83.195312 148.171875 91.792969 150.90625 L 91.792969 158.070312 C 88.746094 154.035156 83.730469 151.898438 83.730469 151.898438 C 83.730469 151.898438 83.195312 164.402344 91.792969 167.136719 L 91.792969 174.300781 C 88.746094 170.269531 83.730469 168.125 83.730469 168.125 C 83.730469 168.125 83.195312 180.628906 91.792969 183.367188 L 91.792969 185.058594 C 91.792969 186.996094 91.851562 188.925781 91.964844 190.847656 C 89.253906 186.371094 84.082031 183.742188 84.082031 183.742188 C 84.082031 183.742188 82.621094 196.9375 91.886719 199.765625 C 91.898438 199.824219 91.910156 199.886719 91.925781 199.949219 C 92.085938 199.9375 92.242188 199.921875 92.394531 199.90625 C 92.546875 199.945312 92.699219 199.980469 92.855469 200.015625 C 92.878906 199.953125 92.898438 199.894531 92.917969 199.832031 L 92.925781 199.832031 C 94.117188 207.535156 96.246094 215.046875 99.304688 222.28125 C 101.027344 226.367188 103.023438 230.300781 105.273438 234.074219 C 106.179688 233.675781 107.085938 233.289062 108 232.902344 C 105.734375 229.144531 103.734375 225.21875 102.011719 221.136719 C 98.992188 213.980469 96.902344 206.546875 95.761719 198.925781 "/><path style=" stroke:none;fill-rule:nonzero;fill:#eb6a18;fill-opacity:1;" d="M 223.296875 270.445312 C 211.878906 275.28125 199.757812 277.734375 187.273438 277.734375 C 174.785156 277.734375 162.664062 275.28125 151.25 270.445312 C 145.667969 268.082031 140.375 265.199219 135.410156 261.828125 C 134.25 262.207031 133.09375 262.597656 131.9375 263 C 137.585938 267.03125 143.660156 270.429688 150.101562 273.15625 C 161.882812 278.148438 174.390625 280.679688 187.273438 280.679688 C 200.15625 280.679688 212.660156 278.148438 224.441406 273.15625 C 230.90625 270.421875 236.992188 267.011719 242.65625 262.964844 C 241.5 262.5625 240.34375 262.171875 239.1875 261.792969 C 234.203125 265.179688 228.894531 268.074219 223.296875 270.445312 "/><path style=" stroke:none;fill-rule:nonzero;fill:#1d333b;fill-opacity:1;" d="M 257.527344 263.582031 C 212.894531 243.753906 161.800781 243.753906 117.167969 263.582031 C 113.496094 255.402344 109.824219 247.226562 106.152344 239.046875 C 157.738281 216.09375 216.957031 216.09375 268.542969 239.046875 C 264.871094 247.226562 261.199219 255.402344 257.527344 263.582031 "/><g clip-rule="nonzero" clip-path="url(#2813a5f1f7)"><path style=" stroke:none;fill-rule:nonzero;fill:#1d333b;fill-opacity:1;" d="M 298.480469 289.59375 C 288.632812 281.253906 278.007812 274.042969 266.609375 268 C 270.757812 260.054688 274.902344 252.105469 279.050781 244.160156 C 292.238281 251.140625 304.539062 259.488281 315.925781 269.140625 C 307.507812 267.707031 299.050781 266.863281 290.515625 266.648438 C 293.664062 274.132812 296.324219 281.769531 298.480469 289.59375 "/></g><g clip-rule="nonzero" clip-path="url(#48e7eb2250)"><path style=" stroke:none;fill-rule:nonzero;fill:#1d333b;fill-opacity:1;" d="M 76.214844 289.59375 C 86.0625 281.253906 96.6875 274.042969 108.085938 268 C 103.9375 260.054688 99.792969 252.105469 95.648438 244.160156 C 82.460938 251.140625 70.15625 259.488281 58.773438 269.140625 C 67.1875 267.707031 75.644531 266.863281 84.179688 266.648438 C 81.035156 274.132812 78.371094 281.769531 76.214844 289.59375 "/></g><path style=" stroke:none;fill-rule:nonzero;fill:#ffffff;fill-opacity:1;" d="M 233.433594 139.917969 C 231.886719 138.96875 230.25 138.214844 228.566406 137.65625 C 229.667969 135.019531 230.273438 132.222656 230.386719 129.40625 L 237.890625 129.40625 C 237.667969 133.457031 236.015625 137.125 233.433594 139.917969 Z M 208.714844 116.996094 C 210.265625 117.945312 211.898438 118.699219 213.585938 119.257812 C 212.480469 121.894531 211.875 124.691406 211.765625 127.507812 L 204.257812 127.507812 C 204.484375 123.460938 206.132812 119.789062 208.714844 116.996094 Z M 222.023438 127.507812 L 222.023438 120.445312 C 223.605469 120.382812 225.183594 120.160156 226.730469 119.785156 C 227.789062 122.246094 228.378906 124.871094 228.492188 127.507812 Z M 222.023438 136.472656 L 222.023438 129.40625 L 228.492188 129.40625 C 228.378906 132.046875 227.789062 134.667969 226.730469 137.128906 C 225.183594 136.753906 223.605469 136.535156 222.023438 136.472656 Z M 227.757812 139.386719 C 229.226562 139.859375 230.65625 140.488281 232.015625 141.277344 C 229.667969 143.292969 226.757812 144.667969 223.554688 145.144531 C 225.28125 143.410156 226.683594 141.460938 227.757812 139.386719 Z M 222.023438 143.996094 L 222.023438 138.367188 C 223.316406 138.421875 224.609375 138.59375 225.882812 138.878906 C 224.882812 140.726562 223.59375 142.453125 222.023438 143.996094 Z M 214.394531 139.386719 C 215.46875 141.460938 216.867188 143.410156 218.597656 145.144531 C 215.394531 144.667969 212.480469 143.292969 210.132812 141.277344 C 211.492188 140.488281 212.921875 139.859375 214.394531 139.386719 Z M 220.128906 143.996094 C 218.554688 142.453125 217.269531 140.726562 216.265625 138.878906 C 217.539062 138.59375 218.832031 138.421875 220.128906 138.367188 Z M 220.128906 129.40625 L 220.128906 136.472656 C 218.542969 136.53125 216.964844 136.75 215.417969 137.128906 C 214.359375 134.667969 213.773438 132.046875 213.660156 129.40625 Z M 220.128906 120.445312 L 220.128906 127.507812 L 213.660156 127.507812 C 213.773438 124.871094 214.359375 122.246094 215.417969 119.785156 C 216.964844 120.160156 218.542969 120.382812 220.128906 120.445312 Z M 214.394531 117.527344 C 212.921875 117.054688 211.492188 116.425781 210.132812 115.632812 C 212.480469 113.621094 215.394531 112.246094 218.597656 111.773438 C 216.867188 113.507812 215.46875 115.453125 214.394531 117.527344 Z M 220.128906 112.917969 L 220.128906 118.546875 C 218.832031 118.492188 217.539062 118.320312 216.265625 118.035156 C 217.269531 116.191406 218.554688 114.460938 220.128906 112.917969 Z M 223.554688 111.773438 C 226.757812 112.246094 229.667969 113.621094 232.015625 115.636719 C 230.65625 116.425781 229.226562 117.054688 227.757812 117.527344 C 226.683594 115.453125 225.28125 113.507812 223.554688 111.773438 Z M 222.023438 112.917969 C 223.59375 114.460938 224.882812 116.191406 225.882812 118.035156 C 224.609375 118.320312 223.316406 118.492188 222.023438 118.546875 Z M 211.765625 129.40625 C 211.875 132.222656 212.480469 135.019531 213.585938 137.65625 C 211.898438 138.214844 210.265625 138.96875 208.714844 139.917969 C 206.132812 137.125 204.484375 133.457031 204.257812 129.40625 Z M 237.890625 127.507812 L 230.386719 127.507812 C 230.273438 124.691406 229.667969 121.894531 228.566406 119.257812 C 230.25 118.699219 231.886719 117.945312 233.433594 116.996094 C 236.015625 119.789062 237.667969 123.460938 237.890625 127.507812 Z M 221.074219 109.832031 C 210.804688 109.832031 202.476562 118.171875 202.476562 128.457031 C 202.476562 138.746094 210.804688 147.082031 221.074219 147.082031 C 231.347656 147.082031 239.675781 138.746094 239.675781 128.457031 C 239.675781 118.171875 231.347656 109.832031 221.074219 109.832031 "/><path style=" stroke:none;fill-rule:nonzero;fill:#eb6a18;fill-opacity:1;" d="M 124.15625 169.453125 L 124.15625 185.058594 C 124.15625 199.019531 128.648438 212.28125 136.9375 223.207031 C 139.621094 222.527344 142.316406 221.902344 145.023438 221.328125 C 157.46875 218.707031 170.199219 217.25 182.933594 216.972656 L 182.933594 169.453125 L 124.15625 169.453125 "/><path style=" stroke:none;fill-rule:nonzero;fill:#3a95b5;fill-opacity:1;" d="M 191.761719 169.453125 L 191.761719 216.972656 C 204.5 217.25 217.230469 218.707031 229.667969 221.328125 C 232.335938 221.890625 234.988281 222.507812 237.628906 223.175781 C 245.90625 212.257812 250.390625 199.003906 250.390625 185.058594 L 250.390625 169.453125 L 191.761719 169.453125 "/><path style=" stroke:none;fill-rule:nonzero;fill:#3a95b5;fill-opacity:1;" d="M 182.933594 160.613281 L 182.933594 83.34375 L 124.15625 99.351562 L 124.15625 160.613281 L 182.933594 160.613281 "/><path style=" stroke:none;fill-rule:nonzero;fill:#ffffff;fill-opacity:1;" d="M 132.605469 116.722656 L 132.605469 140.558594 L 133.632812 140.449219 C 134.421875 140.363281 135.222656 140.320312 136.019531 140.320312 C 141.203125 140.320312 145.617188 142.15625 148.40625 143.691406 C 151.429688 145.363281 153.222656 147.03125 153.242188 147.046875 L 153.28125 147.082031 C 150.726562 145.699219 140.367188 140.617188 130.003906 143.277344 L 130.003906 116.859375 C 130.867188 116.765625 131.738281 116.722656 132.605469 116.722656 "/><path style=" stroke:none;fill-rule:nonzero;fill:#ffffff;fill-opacity:1;" d="M 151.472656 142.585938 C 148.121094 140.433594 142.660156 137.800781 136.019531 137.800781 C 135.71875 137.800781 135.421875 137.804688 135.121094 137.8125 L 135.121094 115.324219 C 135.421875 115.308594 135.71875 115.304688 136.019531 115.304688 C 139.40625 115.304688 142.832031 116.089844 146.203125 117.644531 C 148.539062 118.71875 150.359375 119.945312 151.472656 120.78125 Z M 133.53125 113.847656 L 133.53125 139.523438 C 143.125 138.488281 150.65625 143.746094 153.0625 145.675781 L 153.0625 120 C 150.65625 118.070312 143.125 112.8125 133.53125 113.847656 "/><path style=" stroke:none;fill-rule:nonzero;fill:#ffffff;fill-opacity:1;" d="M 174.449219 116.722656 L 174.449219 140.558594 L 173.421875 140.449219 C 172.632812 140.363281 171.828125 140.320312 171.03125 140.320312 C 165.847656 140.320312 161.433594 142.15625 158.644531 143.691406 C 155.621094 145.363281 153.828125 147.03125 153.8125 147.046875 L 153.769531 147.082031 C 156.324219 145.699219 166.6875 140.617188 177.050781 143.277344 L 177.050781 116.859375 C 176.183594 116.765625 175.3125 116.722656 174.449219 116.722656 "/><path style=" stroke:none;fill-rule:nonzero;fill:#ffffff;fill-opacity:1;" d="M 171.929688 137.8125 C 171.628906 137.804688 171.332031 137.800781 171.03125 137.800781 C 164.390625 137.800781 158.929688 140.433594 155.578125 142.585938 L 155.578125 120.78125 C 156.691406 119.945312 158.511719 118.71875 160.851562 117.644531 C 164.222656 116.089844 167.648438 115.304688 171.03125 115.304688 C 171.332031 115.304688 171.632812 115.308594 171.929688 115.324219 Z M 153.988281 120 L 153.988281 145.675781 C 156.394531 143.746094 163.929688 138.488281 173.519531 139.523438 L 173.519531 113.847656 C 163.929688 112.8125 156.394531 118.070312 153.988281 120 "/><path style=" stroke:none;fill-rule:nonzero;fill:#ffffff;fill-opacity:1;" d="M 207.617188 206.484375 L 207.152344 212.074219 L 212.378906 210.066406 C 211.136719 208.476562 209.492188 207.238281 207.617188 206.484375 Z M 217.199219 204.679688 C 215.878906 205.3125 214.257812 205.207031 213.007812 204.265625 C 211.753906 203.324219 211.199219 201.796875 211.4375 200.347656 C 210.410156 200.84375 209.199219 200.886719 208.121094 200.4375 L 207.699219 205.535156 C 209.914062 206.367188 211.851562 207.824219 213.269531 209.722656 L 218.039062 207.890625 C 217.304688 206.984375 217.011719 205.808594 217.199219 204.679688 Z M 236.078125 180.253906 L 231.828125 185.921875 L 233.613281 187.261719 L 236.429688 183.503906 C 237.1875 182.488281 237.023438 181.070312 236.078125 180.253906 Z M 218.6875 203.457031 C 217.835938 204.589844 217.867188 206.117188 218.664062 207.203125 L 232.683594 188.5 L 230.902344 187.160156 Z M 231.097656 185.371094 L 235.355469 179.695312 L 230.328125 175.917969 L 226.070312 181.589844 Z M 212.929688 199.125 C 211.886719 200.511719 212.167969 202.492188 213.554688 203.53125 C 214.941406 204.574219 216.914062 204.292969 217.953125 202.90625 L 230.167969 186.613281 L 225.140625 182.832031 Z M 229.589844 175.371094 C 228.542969 174.691406 227.136719 174.929688 226.375 175.945312 L 223.558594 179.703125 L 225.339844 181.042969 Z M 212.195312 198.574219 L 224.410156 182.28125 L 222.628906 180.941406 L 208.609375 199.644531 C 209.875 200.105469 211.347656 199.710938 212.195312 198.574219 "/><path style=" stroke:none;fill-rule:nonzero;fill:#ffffff;fill-opacity:1;" d="M 148.382812 184.328125 C 147.015625 184.328125 145.910156 185.4375 145.910156 186.808594 C 145.910156 188.171875 147.015625 189.285156 148.382812 189.285156 L 150.855469 189.285156 L 150.855469 186.808594 C 150.855469 185.4375 149.75 184.328125 148.382812 184.328125 "/><path style=" stroke:none;fill-rule:nonzero;fill:#ffffff;fill-opacity:1;" d="M 153.546875 201.347656 C 154.695312 201.347656 155.628906 200.410156 155.628906 199.257812 L 155.628906 189.890625 L 151.460938 189.890625 L 151.460938 199.257812 C 151.460938 200.410156 152.398438 201.347656 153.546875 201.347656 "/><path style=" stroke:none;fill-rule:nonzero;fill:#ffffff;fill-opacity:1;" d="M 161.179688 186.808594 C 161.179688 185.4375 160.074219 184.328125 158.707031 184.328125 C 157.34375 184.328125 156.234375 185.4375 156.234375 186.808594 L 156.234375 189.285156 L 158.707031 189.285156 C 160.074219 189.285156 161.179688 188.171875 161.179688 186.808594 "/><path style=" stroke:none;fill-rule:nonzero;fill:#ffffff;fill-opacity:1;" d="M 162.375 178.898438 C 160.015625 176.566406 156.882812 175.285156 153.546875 175.285156 L 153.515625 175.285156 C 150.167969 175.289062 147.023438 176.601562 144.65625 178.976562 C 142.292969 181.351562 140.988281 184.503906 140.988281 187.859375 C 140.988281 191.394531 142.488281 194.789062 145.105469 197.167969 C 146.554688 198.488281 147.789062 200.039062 148.769531 201.769531 L 148.769531 190.496094 L 149.378906 190.496094 L 149.378906 201.253906 C 150.230469 200.996094 150.855469 200.199219 150.855469 199.257812 L 150.855469 189.890625 L 148.382812 189.890625 C 146.683594 189.890625 145.304688 188.507812 145.304688 186.808594 C 145.304688 185.101562 146.683594 183.722656 148.382812 183.722656 C 150.082031 183.722656 151.460938 185.101562 151.460938 186.808594 L 151.460938 189.285156 L 155.628906 189.285156 L 155.628906 186.808594 C 155.628906 185.101562 157.007812 183.722656 158.707031 183.722656 C 160.410156 183.722656 161.785156 185.101562 161.785156 186.808594 C 161.785156 188.507812 160.410156 189.890625 158.707031 189.890625 L 156.234375 189.890625 L 156.234375 199.257812 C 156.234375 200.199219 156.859375 200.996094 157.714844 201.253906 L 157.714844 190.496094 L 158.320312 190.496094 L 158.320312 201.832031 C 159.316406 200.0625 160.574219 198.472656 162.054688 197.105469 C 164.671875 194.6875 166.148438 191.257812 166.101562 187.691406 C 166.058594 184.351562 164.734375 181.226562 162.375 178.898438 "/><path style=" stroke:none;fill-rule:nonzero;fill:#ffffff;fill-opacity:1;" d="M 157.867188 206.878906 C 157.867188 209.089844 156.332031 210.941406 154.269531 211.425781 C 155.867188 210.539062 156.945312 208.835938 156.945312 206.878906 L 156.945312 205.761719 L 157.867188 205.761719 Z M 148.359375 205.238281 L 148.359375 206.878906 C 148.359375 209.746094 150.679688 212.074219 153.546875 212.074219 C 156.410156 212.074219 158.730469 209.746094 158.730469 206.878906 L 158.730469 205.238281 L 148.359375 205.238281 "/><path style=" stroke:none;fill-rule:nonzero;fill:#ffffff;fill-opacity:1;" d="M 158.730469 202.761719 L 148.359375 202.761719 L 148.359375 204.171875 L 158.730469 204.171875 L 158.730469 202.761719 "/><g clip-rule="nonzero" clip-path="url(#c5f3b082fe)"><g clip-rule="nonzero" clip-path="url(#ad63511598)"><path style=" stroke:none;fill-rule:nonzero;fill:#1d333b;fill-opacity:1;" d="M 133.335938 297.804688 L 140.152344 297.804688 L 140.152344 304.289062 L 133.335938 304.289062 Z M 133.335938 297.804688 "/></g></g><g style="fill:#ffffff;fill-opacity:1;"><g transform="translate(120.909449, 252.65744)"><path style="stroke:none" d="M 5.484375 -1.734375 C 4.640625 -1.441406 3.847656 -1.28125 3.109375 -1.25 C 2.378906 -1.226562 1.734375 -1.304688 1.171875 -1.484375 C 0.609375 -1.671875 0.140625 -1.925781 -0.234375 -2.25 L 0.515625 -4.359375 L 0.71875 -4.4375 C 1.28125 -4.007812 1.898438 -3.734375 2.578125 -3.609375 C 3.265625 -3.492188 3.988281 -3.566406 4.75 -3.828125 C 5.394531 -4.054688 5.832031 -4.363281 6.0625 -4.75 C 6.289062 -5.144531 6.320312 -5.585938 6.15625 -6.078125 C 6.050781 -6.359375 5.910156 -6.578125 5.734375 -6.734375 C 5.566406 -6.890625 5.335938 -6.992188 5.046875 -7.046875 C 4.753906 -7.097656 4.378906 -7.101562 3.921875 -7.0625 L 2.21875 -6.859375 C 1.03125 -6.722656 0.0664062 -6.847656 -0.671875 -7.234375 C -1.421875 -7.628906 -1.960938 -8.289062 -2.296875 -9.21875 C -2.535156 -9.90625 -2.570312 -10.570312 -2.40625 -11.21875 C -2.25 -11.875 -1.890625 -12.460938 -1.328125 -12.984375 C -0.773438 -13.515625 -0.0351562 -13.941406 0.890625 -14.265625 C 1.828125 -14.597656 2.671875 -14.757812 3.421875 -14.75 C 4.179688 -14.738281 4.890625 -14.554688 5.546875 -14.203125 L 4.921875 -12.140625 L 4.71875 -12.0625 C 4.25 -12.3125 3.753906 -12.445312 3.234375 -12.46875 C 2.722656 -12.488281 2.179688 -12.398438 1.609375 -12.203125 C 0.941406 -11.960938 0.476562 -11.664062 0.21875 -11.3125 C -0.0390625 -10.957031 -0.0976562 -10.570312 0.046875 -10.15625 C 0.179688 -9.769531 0.410156 -9.503906 0.734375 -9.359375 C 1.066406 -9.222656 1.546875 -9.191406 2.171875 -9.265625 L 3.90625 -9.515625 C 5.175781 -9.671875 6.1875 -9.539062 6.9375 -9.125 C 7.6875 -8.71875 8.226562 -8.035156 8.5625 -7.078125 C 8.832031 -6.304688 8.90625 -5.582031 8.78125 -4.90625 C 8.65625 -4.226562 8.3125 -3.613281 7.75 -3.0625 C 7.195312 -2.519531 6.441406 -2.078125 5.484375 -1.734375 Z M 5.484375 -1.734375 "/></g></g><g style="fill:#ffffff;fill-opacity:1;"><g transform="translate(131.133349, 249.052978)"><path style="stroke:none" d="M 3.703125 -0.875 C 3.109375 -0.695312 2.554688 -0.65625 2.046875 -0.75 C 1.535156 -0.851562 1.097656 -1.082031 0.734375 -1.4375 C 0.378906 -1.789062 0.113281 -2.269531 -0.0625 -2.875 C -0.21875 -3.4375 -0.234375 -3.941406 -0.109375 -4.390625 C 0.015625 -4.835938 0.289062 -5.253906 0.71875 -5.640625 C 1.144531 -6.023438 1.742188 -6.398438 2.515625 -6.765625 C 3.054688 -7.023438 3.457031 -7.25 3.71875 -7.4375 C 3.976562 -7.625 4.140625 -7.800781 4.203125 -7.96875 C 4.265625 -8.144531 4.265625 -8.335938 4.203125 -8.546875 C 4.117188 -8.847656 3.945312 -9.046875 3.6875 -9.140625 C 3.425781 -9.242188 3.050781 -9.222656 2.5625 -9.078125 C 2.039062 -8.929688 1.578125 -8.671875 1.171875 -8.296875 C 0.773438 -7.929688 0.457031 -7.503906 0.21875 -7.015625 L 0.0625 -6.96875 L -1.359375 -8.15625 C -1.035156 -8.832031 -0.578125 -9.414062 0.015625 -9.90625 C 0.617188 -10.40625 1.328125 -10.773438 2.140625 -11.015625 C 3.390625 -11.367188 4.367188 -11.363281 5.078125 -11 C 5.785156 -10.632812 6.28125 -9.96875 6.5625 -9 L 7.75 -4.90625 C 7.875 -4.488281 8.117188 -4.335938 8.484375 -4.453125 C 8.628906 -4.492188 8.765625 -4.5625 8.890625 -4.65625 L 9.015625 -4.640625 L 9.65625 -3.046875 C 9.550781 -2.921875 9.390625 -2.796875 9.171875 -2.671875 C 8.953125 -2.546875 8.703125 -2.441406 8.421875 -2.359375 C 7.859375 -2.203125 7.382812 -2.1875 7 -2.3125 C 6.625 -2.4375 6.304688 -2.710938 6.046875 -3.140625 L 5.859375 -3.109375 C 5.679688 -1.984375 4.960938 -1.238281 3.703125 -0.875 Z M 3.9375 -2.875 C 4.488281 -3.03125 4.875 -3.335938 5.09375 -3.796875 C 5.320312 -4.265625 5.34375 -4.820312 5.15625 -5.46875 L 4.875 -6.4375 L 4.6875 -6.40625 C 4.59375 -6.257812 4.4375 -6.113281 4.21875 -5.96875 C 4.007812 -5.820312 3.703125 -5.648438 3.296875 -5.453125 C 2.804688 -5.210938 2.476562 -4.957031 2.3125 -4.6875 C 2.15625 -4.414062 2.132812 -4.09375 2.25 -3.71875 C 2.363281 -3.3125 2.566406 -3.035156 2.859375 -2.890625 C 3.160156 -2.753906 3.519531 -2.75 3.9375 -2.875 Z M 3.9375 -2.875 "/></g></g><g style="fill:#ffffff;fill-opacity:1;"><g transform="translate(140.735608, 246.230879)"><path style="stroke:none" d="M 4.75 -0.890625 C 4 -0.710938 3.289062 -0.738281 2.625 -0.96875 C 1.96875 -1.207031 1.390625 -1.660156 0.890625 -2.328125 C 0.390625 -2.992188 0.015625 -3.867188 -0.234375 -4.953125 C -0.484375 -6.035156 -0.519531 -6.988281 -0.34375 -7.8125 C -0.175781 -8.632812 0.160156 -9.296875 0.671875 -9.796875 C 1.179688 -10.304688 1.828125 -10.648438 2.609375 -10.828125 C 3.210938 -10.960938 3.753906 -10.976562 4.234375 -10.875 C 4.710938 -10.769531 5.148438 -10.535156 5.546875 -10.171875 L 5.703125 -10.25 L 4.59375 -15.125 L 6.984375 -15.671875 L 10.046875 -2.296875 L 7.65625 -1.75 L 7.375 -2.984375 L 7.1875 -2.984375 C 7.019531 -2.472656 6.738281 -2.03125 6.34375 -1.65625 C 5.945312 -1.289062 5.414062 -1.035156 4.75 -0.890625 Z M 5.078125 -3.125 C 5.742188 -3.269531 6.21875 -3.625 6.5 -4.1875 C 6.78125 -4.757812 6.804688 -5.535156 6.578125 -6.515625 C 6.359375 -7.492188 5.992188 -8.179688 5.484375 -8.578125 C 4.984375 -8.972656 4.398438 -9.097656 3.734375 -8.953125 C 3.023438 -8.785156 2.535156 -8.425781 2.265625 -7.875 C 2.003906 -7.320312 1.988281 -6.539062 2.21875 -5.53125 C 2.445312 -4.53125 2.800781 -3.835938 3.28125 -3.453125 C 3.769531 -3.066406 4.367188 -2.957031 5.078125 -3.125 Z M 5.078125 -3.125 "/></g></g><g style="fill:#ffffff;fill-opacity:1;"><g transform="translate(151.867861, 243.692672)"><path style="stroke:none" d="M 3.796875 -0.453125 C 3.171875 -0.347656 2.613281 -0.367188 2.125 -0.515625 C 1.632812 -0.671875 1.226562 -0.945312 0.90625 -1.34375 C 0.582031 -1.738281 0.367188 -2.25 0.265625 -2.875 C 0.171875 -3.445312 0.210938 -3.945312 0.390625 -4.375 C 0.578125 -4.800781 0.898438 -5.179688 1.359375 -5.515625 C 1.828125 -5.847656 2.46875 -6.15625 3.28125 -6.4375 C 3.84375 -6.625 4.265625 -6.796875 4.546875 -6.953125 C 4.835938 -7.109375 5.019531 -7.265625 5.09375 -7.421875 C 5.175781 -7.585938 5.195312 -7.78125 5.15625 -8 C 5.101562 -8.300781 4.957031 -8.515625 4.71875 -8.640625 C 4.476562 -8.773438 4.109375 -8.800781 3.609375 -8.71875 C 3.066406 -8.632812 2.578125 -8.429688 2.140625 -8.109375 C 1.703125 -7.785156 1.332031 -7.394531 1.03125 -6.9375 L 0.859375 -6.90625 L -0.421875 -8.265625 C -0.015625 -8.890625 0.515625 -9.410156 1.171875 -9.828125 C 1.828125 -10.253906 2.566406 -10.539062 3.390625 -10.6875 C 4.679688 -10.894531 5.65625 -10.78125 6.3125 -10.34375 C 6.96875 -9.90625 7.378906 -9.1875 7.546875 -8.1875 L 8.265625 -4 C 8.335938 -3.5625 8.566406 -3.375 8.953125 -3.4375 C 9.085938 -3.457031 9.222656 -3.507812 9.359375 -3.59375 L 9.484375 -3.5625 L 9.953125 -1.921875 C 9.828125 -1.804688 9.648438 -1.695312 9.421875 -1.59375 C 9.191406 -1.5 8.929688 -1.425781 8.640625 -1.375 C 8.066406 -1.28125 7.597656 -1.316406 7.234375 -1.484375 C 6.878906 -1.648438 6.59375 -1.960938 6.375 -2.421875 L 6.1875 -2.40625 C 5.882812 -1.320312 5.085938 -0.671875 3.796875 -0.453125 Z M 4.25 -2.40625 C 4.8125 -2.5 5.226562 -2.757812 5.5 -3.1875 C 5.769531 -3.625 5.847656 -4.175781 5.734375 -4.84375 L 5.578125 -5.828125 L 5.390625 -5.828125 C 5.273438 -5.691406 5.101562 -5.5625 4.875 -5.4375 C 4.65625 -5.3125 4.332031 -5.175781 3.90625 -5.03125 C 3.40625 -4.84375 3.050781 -4.625 2.84375 -4.375 C 2.644531 -4.132812 2.582031 -3.816406 2.65625 -3.421875 C 2.71875 -3.015625 2.890625 -2.722656 3.171875 -2.546875 C 3.453125 -2.378906 3.8125 -2.332031 4.25 -2.40625 Z M 4.25 -2.40625 "/></g></g><g style="fill:#ffffff;fill-opacity:1;"><g transform="translate(161.795959, 242.042405)"><path style="stroke:none" d="M 6.421875 -3.125 L 7.28125 -1.40625 C 7.039062 -1.15625 6.722656 -0.941406 6.328125 -0.765625 C 5.941406 -0.585938 5.5 -0.472656 5 -0.421875 C 3.945312 -0.285156 3.113281 -0.472656 2.5 -0.984375 C 1.882812 -1.492188 1.515625 -2.296875 1.390625 -3.390625 L 0.828125 -8 L -0.640625 -7.8125 L -0.875 -9.75 L 0.59375 -9.9375 L 0.359375 -11.84375 L 2.75 -12.53125 L 3.03125 -10.234375 L 5.796875 -10.5625 L 6.03125 -8.625 L 3.265625 -8.296875 L 3.796875 -3.859375 C 3.859375 -3.378906 4.003906 -3.039062 4.234375 -2.84375 C 4.460938 -2.644531 4.765625 -2.570312 5.140625 -2.625 C 5.578125 -2.675781 5.941406 -2.832031 6.234375 -3.09375 Z M 6.421875 -3.125 "/></g></g><g style="fill:#ffffff;fill-opacity:1;"><g transform="translate(169.179388, 241.173008)"><path style="stroke:none" d=""/></g></g><g style="fill:#ffffff;fill-opacity:1;"><g transform="translate(173.224787, 240.73711)"><path style="stroke:none" d="M 5.765625 -0.09375 C 4.867188 -0.0507812 4.0625 -0.125 3.34375 -0.3125 C 2.625 -0.5 2.019531 -0.757812 1.53125 -1.09375 C 1.050781 -1.4375 0.679688 -1.816406 0.421875 -2.234375 L 1.75 -4.03125 L 1.96875 -4.046875 C 2.375 -3.484375 2.890625 -3.039062 3.515625 -2.71875 C 4.140625 -2.40625 4.851562 -2.269531 5.65625 -2.3125 C 6.332031 -2.34375 6.835938 -2.507812 7.171875 -2.8125 C 7.503906 -3.125 7.660156 -3.535156 7.640625 -4.046875 C 7.617188 -4.347656 7.546875 -4.597656 7.421875 -4.796875 C 7.296875 -5.003906 7.097656 -5.175781 6.828125 -5.3125 C 6.566406 -5.445312 6.21875 -5.554688 5.78125 -5.640625 L 4.09375 -5.953125 C 2.914062 -6.148438 2.023438 -6.539062 1.421875 -7.125 C 0.816406 -7.71875 0.492188 -8.507812 0.453125 -9.5 C 0.410156 -10.226562 0.5625 -10.878906 0.90625 -11.453125 C 1.25 -12.023438 1.757812 -12.484375 2.4375 -12.828125 C 3.125 -13.171875 3.957031 -13.363281 4.9375 -13.40625 C 5.925781 -13.457031 6.78125 -13.367188 7.5 -13.140625 C 8.226562 -12.921875 8.851562 -12.546875 9.375 -12.015625 L 8.1875 -10.21875 L 7.96875 -10.203125 C 7.59375 -10.578125 7.164062 -10.847656 6.6875 -11.015625 C 6.207031 -11.179688 5.660156 -11.25 5.046875 -11.21875 C 4.347656 -11.1875 3.816406 -11.035156 3.453125 -10.765625 C 3.097656 -10.503906 2.929688 -10.15625 2.953125 -9.71875 C 2.972656 -9.3125 3.117188 -8.988281 3.390625 -8.75 C 3.660156 -8.519531 4.113281 -8.351562 4.75 -8.25 L 6.453125 -7.984375 C 7.722656 -7.773438 8.65625 -7.367188 9.25 -6.765625 C 9.851562 -6.160156 10.179688 -5.347656 10.234375 -4.328125 C 10.273438 -3.515625 10.132812 -2.800781 9.8125 -2.1875 C 9.488281 -1.570312 8.984375 -1.082031 8.296875 -0.71875 C 7.617188 -0.351562 6.773438 -0.144531 5.765625 -0.09375 Z M 5.765625 -0.09375 "/></g></g><g style="fill:#ffffff;fill-opacity:1;"><g transform="translate(184.046633, 240.206544)"><path style="stroke:none" d="M 10.515625 -12.875 L 10.5 -10.71875 L 6.75 -10.75 L 6.65625 0.0625 L 4.09375 0.03125 L 4.1875 -10.78125 L 0.453125 -10.8125 L 0.46875 -12.96875 Z M 10.515625 -12.875 "/></g></g><g style="fill:#ffffff;fill-opacity:1;"><g transform="translate(194.491009, 240.283449)"><path style="stroke:none" d="M 4.609375 -5.40625 L 4.375 -1.859375 L 10.5625 -1.453125 L 10.421875 0.6875 L 1.6875 0.109375 L 2.546875 -12.828125 L 11.140625 -12.25 L 11 -10.109375 L 4.953125 -10.515625 L 4.75 -7.5 L 10.03125 -7.15625 L 9.890625 -5.0625 Z M 4.609375 -5.40625 "/></g></g><g style="fill:#ffffff;fill-opacity:1;"><g transform="translate(205.240774, 240.878781)"><path style="stroke:none" d="M 3.984375 0.5625 L 1.671875 0.234375 L 3.46875 -12.609375 L 6.796875 -12.140625 L 8.734375 -2.25 L 8.921875 -2.21875 L 13.46875 -11.203125 L 16.703125 -10.75 L 14.90625 2.09375 L 12.5 1.75 L 13.6875 -6.75 L 13.46875 -6.8125 L 9.296875 1.296875 L 7.1875 1.015625 L 5.421875 -7.9375 L 5.171875 -7.9375 Z M 3.984375 0.5625 "/></g></g><g style="fill:#ffffff;fill-opacity:1;"><g transform="translate(221.41168, 243.226875)"><path style="stroke:none" d="M 0.53125 4.171875 L 3.453125 -9.265625 L 5.859375 -8.734375 L 5.59375 -7.5 L 5.765625 -7.421875 C 6.140625 -7.847656 6.585938 -8.128906 7.109375 -8.265625 C 7.640625 -8.398438 8.226562 -8.398438 8.875 -8.265625 C 9.632812 -8.097656 10.265625 -7.769531 10.765625 -7.28125 C 11.265625 -6.800781 11.59375 -6.148438 11.75 -5.328125 C 11.914062 -4.515625 11.878906 -3.5625 11.640625 -2.46875 C 11.410156 -1.375 11.046875 -0.5 10.546875 0.15625 C 10.046875 0.820312 9.453125 1.273438 8.765625 1.515625 C 8.078125 1.753906 7.34375 1.789062 6.5625 1.625 C 5.957031 1.488281 5.460938 1.273438 5.078125 0.984375 C 4.691406 0.691406 4.398438 0.300781 4.203125 -0.1875 L 4 -0.171875 L 2.9375 4.703125 Z M 6.34375 -0.5625 C 7.0625 -0.414062 7.65625 -0.535156 8.125 -0.921875 C 8.59375 -1.304688 8.9375 -2.003906 9.15625 -3.015625 C 9.375 -4.023438 9.347656 -4.804688 9.078125 -5.359375 C 8.816406 -5.910156 8.328125 -6.257812 7.609375 -6.40625 C 6.941406 -6.550781 6.359375 -6.425781 5.859375 -6.03125 C 5.359375 -5.632812 5 -4.945312 4.78125 -3.96875 C 4.570312 -2.988281 4.613281 -2.210938 4.90625 -1.640625 C 5.195312 -1.066406 5.675781 -0.707031 6.34375 -0.5625 Z M 6.34375 -0.5625 "/></g></g><g style="fill:#ffffff;fill-opacity:1;"><g transform="translate(232.614162, 245.728437)"><path style="stroke:none" d="M 5.34375 -9.921875 C 4.914062 -10.035156 4.601562 -10.253906 4.40625 -10.578125 C 4.21875 -10.910156 4.175781 -11.285156 4.28125 -11.703125 C 4.382812 -12.097656 4.601562 -12.394531 4.9375 -12.59375 C 5.28125 -12.789062 5.664062 -12.832031 6.09375 -12.71875 C 6.375 -12.644531 6.609375 -12.515625 6.796875 -12.328125 C 6.984375 -12.140625 7.113281 -11.925781 7.1875 -11.6875 C 7.257812 -11.457031 7.257812 -11.207031 7.1875 -10.9375 C 7.113281 -10.65625 6.984375 -10.425781 6.796875 -10.25 C 6.617188 -10.070312 6.398438 -9.953125 6.140625 -9.890625 C 5.890625 -9.835938 5.625 -9.847656 5.34375 -9.921875 Z M 1.359375 0.359375 L 3.859375 -9.09375 L 6.25 -8.46875 L 3.75 0.984375 Z M 1.359375 0.359375 "/></g></g><g style="fill:#ffffff;fill-opacity:1;"><g transform="translate(237.537803, 247.007242)"><path style="stroke:none" d="M 1.34375 0.40625 L 4.171875 -8.953125 L 6.46875 -8.265625 L 6.046875 -6.875 L 6.203125 -6.78125 C 6.585938 -7.238281 7 -7.535156 7.4375 -7.671875 C 7.882812 -7.804688 8.367188 -7.796875 8.890625 -7.640625 C 9.429688 -7.472656 9.8125 -7.257812 10.03125 -7 L 9.03125 -5.09375 L 8.828125 -5.109375 C 8.703125 -5.210938 8.570312 -5.300781 8.4375 -5.375 C 8.300781 -5.445312 8.132812 -5.515625 7.9375 -5.578125 C 7.28125 -5.773438 6.707031 -5.691406 6.21875 -5.328125 C 5.726562 -4.960938 5.328125 -4.273438 5.015625 -3.265625 L 3.703125 1.125 Z M 1.34375 0.40625 "/></g></g><g style="fill:#ffffff;fill-opacity:1;"><g transform="translate(244.651487, 249.105147)"><path style="stroke:none" d="M 10.5625 -0.859375 L 4.640625 -2.96875 C 4.410156 -2.144531 4.429688 -1.476562 4.703125 -0.96875 C 4.972656 -0.46875 5.441406 -0.0976562 6.109375 0.140625 C 6.640625 0.328125 7.101562 0.378906 7.5 0.296875 C 7.894531 0.210938 8.269531 0.0078125 8.625 -0.3125 L 8.796875 -0.25 L 9.96875 1.28125 C 9.445312 1.820312 8.8125 2.1875 8.0625 2.375 C 7.3125 2.5625 6.425781 2.472656 5.40625 2.109375 C 4.445312 1.773438 3.6875 1.300781 3.125 0.6875 C 2.5625 0.0820312 2.21875 -0.640625 2.09375 -1.484375 C 1.96875 -2.335938 2.09375 -3.28125 2.46875 -4.3125 C 2.832031 -5.363281 3.335938 -6.175781 3.984375 -6.75 C 4.640625 -7.320312 5.363281 -7.664062 6.15625 -7.78125 C 6.957031 -7.894531 7.78125 -7.804688 8.625 -7.515625 C 9.9375 -7.046875 10.816406 -6.34375 11.265625 -5.40625 C 11.710938 -4.46875 11.703125 -3.332031 11.234375 -2 C 11.054688 -1.519531 10.90625 -1.15625 10.78125 -0.90625 Z M 9.109375 -3.046875 C 9.335938 -3.765625 9.351562 -4.335938 9.15625 -4.765625 C 8.96875 -5.191406 8.578125 -5.507812 7.984375 -5.71875 C 6.816406 -6.132812 5.894531 -5.707031 5.21875 -4.4375 Z M 9.109375 -3.046875 "/></g></g><g clip-rule="nonzero" clip-path="url(#7f49e3dc99)"><g clip-rule="nonzero" clip-path="url(#f4c876a4f3)"><path style=" stroke:none;fill-rule:nonzero;fill:#1d333b;fill-opacity:1;" d="M 232.453125 297.804688 L 239.269531 297.804688 L 239.269531 304.289062 L 232.453125 304.289062 Z M 232.453125 297.804688 "/></g></g><g style="fill:#eb6a18;fill-opacity:1;"><g transform="translate(136.047403, 292.26199)"><path style="stroke:none" d="M 3.8125 0.125 C 3.21875 0.125 2.6875 0.0507812 2.21875 -0.09375 C 1.757812 -0.238281 1.375 -0.429688 1.0625 -0.671875 C 0.75 -0.910156 0.507812 -1.175781 0.34375 -1.46875 L 1.28125 -2.609375 L 1.4375 -2.609375 C 1.6875 -2.222656 2.007812 -1.914062 2.40625 -1.6875 C 2.8125 -1.457031 3.28125 -1.34375 3.8125 -1.34375 C 4.269531 -1.34375 4.613281 -1.4375 4.84375 -1.625 C 5.070312 -1.820312 5.1875 -2.09375 5.1875 -2.4375 C 5.1875 -2.632812 5.148438 -2.800781 5.078125 -2.9375 C 5.003906 -3.082031 4.878906 -3.203125 4.703125 -3.296875 C 4.535156 -3.398438 4.304688 -3.484375 4.015625 -3.546875 L 2.90625 -3.8125 C 2.132812 -3.976562 1.554688 -4.265625 1.171875 -4.671875 C 0.796875 -5.085938 0.609375 -5.625 0.609375 -6.28125 C 0.609375 -6.769531 0.726562 -7.195312 0.96875 -7.5625 C 1.21875 -7.9375 1.570312 -8.222656 2.03125 -8.421875 C 2.5 -8.628906 3.054688 -8.734375 3.703125 -8.734375 C 4.367188 -8.734375 4.9375 -8.644531 5.40625 -8.46875 C 5.882812 -8.289062 6.285156 -8.023438 6.609375 -7.671875 L 5.765625 -6.515625 L 5.625 -6.515625 C 5.375 -6.765625 5.09375 -6.953125 4.78125 -7.078125 C 4.46875 -7.210938 4.109375 -7.28125 3.703125 -7.28125 C 3.234375 -7.28125 2.878906 -7.195312 2.640625 -7.03125 C 2.398438 -6.863281 2.28125 -6.632812 2.28125 -6.34375 C 2.28125 -6.070312 2.363281 -5.851562 2.53125 -5.6875 C 2.695312 -5.53125 2.992188 -5.410156 3.421875 -5.328125 L 4.546875 -5.09375 C 5.378906 -4.914062 5.984375 -4.613281 6.359375 -4.1875 C 6.742188 -3.769531 6.9375 -3.21875 6.9375 -2.53125 C 6.9375 -2 6.816406 -1.53125 6.578125 -1.125 C 6.347656 -0.726562 6 -0.421875 5.53125 -0.203125 C 5.0625 0.015625 4.488281 0.125 3.8125 0.125 Z M 3.8125 0.125 "/></g><g transform="translate(143.448526, 292.26199)"><path style="stroke:none" d="M 2.53125 0.125 C 2.113281 0.125 1.75 0.0507812 1.4375 -0.09375 C 1.132812 -0.25 0.898438 -0.472656 0.734375 -0.765625 C 0.578125 -1.066406 0.5 -1.425781 0.5 -1.84375 C 0.5 -2.226562 0.578125 -2.550781 0.734375 -2.8125 C 0.898438 -3.070312 1.15625 -3.285156 1.5 -3.453125 C 1.851562 -3.617188 2.304688 -3.75 2.859375 -3.84375 C 3.253906 -3.90625 3.550781 -3.972656 3.75 -4.046875 C 3.945312 -4.128906 4.082031 -4.21875 4.15625 -4.3125 C 4.226562 -4.40625 4.265625 -4.523438 4.265625 -4.671875 C 4.265625 -4.878906 4.191406 -5.035156 4.046875 -5.140625 C 3.898438 -5.253906 3.660156 -5.3125 3.328125 -5.3125 C 2.960938 -5.3125 2.613281 -5.226562 2.28125 -5.0625 C 1.957031 -4.90625 1.675781 -4.691406 1.4375 -4.421875 L 1.328125 -4.421875 L 0.640625 -5.453125 C 0.972656 -5.816406 1.375 -6.101562 1.84375 -6.3125 C 2.320312 -6.519531 2.84375 -6.625 3.40625 -6.625 C 4.257812 -6.625 4.878906 -6.441406 5.265625 -6.078125 C 5.648438 -5.710938 5.84375 -5.191406 5.84375 -4.515625 L 5.84375 -1.703125 C 5.84375 -1.410156 5.972656 -1.265625 6.234375 -1.265625 C 6.328125 -1.265625 6.421875 -1.28125 6.515625 -1.3125 L 6.609375 -1.296875 L 6.71875 -0.15625 C 6.625 -0.09375 6.5 -0.0390625 6.34375 0 C 6.1875 0.03125 6.007812 0.046875 5.8125 0.046875 C 5.425781 0.046875 5.125 -0.0234375 4.90625 -0.171875 C 4.6875 -0.328125 4.53125 -0.5625 4.4375 -0.875 L 4.3125 -0.890625 C 3.988281 -0.210938 3.394531 0.125 2.53125 0.125 Z M 3.046875 -1.09375 C 3.421875 -1.09375 3.722656 -1.21875 3.953125 -1.46875 C 4.179688 -1.726562 4.296875 -2.082031 4.296875 -2.53125 L 4.296875 -3.1875 L 4.1875 -3.21875 C 4.082031 -3.132812 3.953125 -3.066406 3.796875 -3.015625 C 3.640625 -2.960938 3.410156 -2.910156 3.109375 -2.859375 C 2.753906 -2.804688 2.5 -2.707031 2.34375 -2.5625 C 2.1875 -2.414062 2.109375 -2.210938 2.109375 -1.953125 C 2.109375 -1.671875 2.191406 -1.457031 2.359375 -1.3125 C 2.523438 -1.164062 2.753906 -1.09375 3.046875 -1.09375 Z M 3.046875 -1.09375 "/></g><g transform="translate(150.301635, 292.26199)"><path style="stroke:none" d="M 3.203125 0.125 C 2.691406 0.125 2.238281 0 1.84375 -0.25 C 1.445312 -0.5 1.132812 -0.875 0.90625 -1.375 C 0.6875 -1.882812 0.578125 -2.507812 0.578125 -3.25 C 0.578125 -3.988281 0.691406 -4.609375 0.921875 -5.109375 C 1.148438 -5.617188 1.46875 -6 1.875 -6.25 C 2.28125 -6.5 2.753906 -6.625 3.296875 -6.625 C 3.703125 -6.625 4.050781 -6.550781 4.34375 -6.40625 C 4.632812 -6.269531 4.882812 -6.054688 5.09375 -5.765625 L 5.21875 -5.796875 L 5.21875 -9.109375 L 6.84375 -9.109375 L 6.84375 0 L 5.21875 0 L 5.21875 -0.84375 L 5.09375 -0.859375 C 4.914062 -0.554688 4.664062 -0.316406 4.34375 -0.140625 C 4.03125 0.0351562 3.648438 0.125 3.203125 0.125 Z M 3.734375 -1.265625 C 4.191406 -1.265625 4.554688 -1.425781 4.828125 -1.75 C 5.097656 -2.082031 5.234375 -2.582031 5.234375 -3.25 C 5.234375 -3.914062 5.097656 -4.410156 4.828125 -4.734375 C 4.554688 -5.066406 4.191406 -5.234375 3.734375 -5.234375 C 3.253906 -5.234375 2.890625 -5.070312 2.640625 -4.75 C 2.390625 -4.4375 2.265625 -3.9375 2.265625 -3.25 C 2.265625 -2.5625 2.390625 -2.054688 2.640625 -1.734375 C 2.890625 -1.421875 3.253906 -1.265625 3.734375 -1.265625 Z M 3.734375 -1.265625 "/></g><g transform="translate(158.091671, 292.26199)"><path style="stroke:none" d="M 2.53125 0.125 C 2.113281 0.125 1.75 0.0507812 1.4375 -0.09375 C 1.132812 -0.25 0.898438 -0.472656 0.734375 -0.765625 C 0.578125 -1.066406 0.5 -1.425781 0.5 -1.84375 C 0.5 -2.226562 0.578125 -2.550781 0.734375 -2.8125 C 0.898438 -3.070312 1.15625 -3.285156 1.5 -3.453125 C 1.851562 -3.617188 2.304688 -3.75 2.859375 -3.84375 C 3.253906 -3.90625 3.550781 -3.972656 3.75 -4.046875 C 3.945312 -4.128906 4.082031 -4.21875 4.15625 -4.3125 C 4.226562 -4.40625 4.265625 -4.523438 4.265625 -4.671875 C 4.265625 -4.878906 4.191406 -5.035156 4.046875 -5.140625 C 3.898438 -5.253906 3.660156 -5.3125 3.328125 -5.3125 C 2.960938 -5.3125 2.613281 -5.226562 2.28125 -5.0625 C 1.957031 -4.90625 1.675781 -4.691406 1.4375 -4.421875 L 1.328125 -4.421875 L 0.640625 -5.453125 C 0.972656 -5.816406 1.375 -6.101562 1.84375 -6.3125 C 2.320312 -6.519531 2.84375 -6.625 3.40625 -6.625 C 4.257812 -6.625 4.878906 -6.441406 5.265625 -6.078125 C 5.648438 -5.710938 5.84375 -5.191406 5.84375 -4.515625 L 5.84375 -1.703125 C 5.84375 -1.410156 5.972656 -1.265625 6.234375 -1.265625 C 6.328125 -1.265625 6.421875 -1.28125 6.515625 -1.3125 L 6.609375 -1.296875 L 6.71875 -0.15625 C 6.625 -0.09375 6.5 -0.0390625 6.34375 0 C 6.1875 0.03125 6.007812 0.046875 5.8125 0.046875 C 5.425781 0.046875 5.125 -0.0234375 4.90625 -0.171875 C 4.6875 -0.328125 4.53125 -0.5625 4.4375 -0.875 L 4.3125 -0.890625 C 3.988281 -0.210938 3.394531 0.125 2.53125 0.125 Z M 3.046875 -1.09375 C 3.421875 -1.09375 3.722656 -1.21875 3.953125 -1.46875 C 4.179688 -1.726562 4.296875 -2.082031 4.296875 -2.53125 L 4.296875 -3.1875 L 4.1875 -3.21875 C 4.082031 -3.132812 3.953125 -3.066406 3.796875 -3.015625 C 3.640625 -2.960938 3.410156 -2.910156 3.109375 -2.859375 C 2.753906 -2.804688 2.5 -2.707031 2.34375 -2.5625 C 2.1875 -2.414062 2.109375 -2.210938 2.109375 -1.953125 C 2.109375 -1.671875 2.191406 -1.457031 2.359375 -1.3125 C 2.523438 -1.164062 2.753906 -1.09375 3.046875 -1.09375 Z M 3.046875 -1.09375 "/></g></g><g style="fill:#eb6a18;fill-opacity:1;"><g transform="translate(164.868176, 292.26199)"><path style="stroke:none" d="M 4.484375 -1.546875 L 4.90625 -0.34375 C 4.726562 -0.195312 4.503906 -0.0820312 4.234375 0 C 3.972656 0.0820312 3.671875 0.125 3.328125 0.125 C 2.628906 0.125 2.097656 -0.0664062 1.734375 -0.453125 C 1.367188 -0.835938 1.1875 -1.394531 1.1875 -2.125 L 1.1875 -5.203125 L 0.1875 -5.203125 L 0.1875 -6.5 L 1.1875 -6.5 L 1.1875 -7.765625 L 2.8125 -8.03125 L 2.8125 -6.5 L 4.65625 -6.5 L 4.65625 -5.203125 L 2.8125 -5.203125 L 2.8125 -2.234375 C 2.8125 -1.910156 2.878906 -1.675781 3.015625 -1.53125 C 3.148438 -1.382812 3.34375 -1.3125 3.59375 -1.3125 C 3.882812 -1.3125 4.140625 -1.390625 4.359375 -1.546875 Z M 4.484375 -1.546875 "/></g><g transform="translate(169.918146, 292.26199)"><path style="stroke:none" d=""/></g><g transform="translate(172.764278, 292.26199)"><path style="stroke:none" d="M 0.9375 2.625 L 0.9375 -6.5 L 2.5625 -6.5 L 2.5625 -5.640625 L 2.6875 -5.625 C 2.882812 -5.957031 3.144531 -6.207031 3.46875 -6.375 C 3.789062 -6.539062 4.164062 -6.625 4.59375 -6.625 C 5.113281 -6.625 5.566406 -6.5 5.953125 -6.25 C 6.347656 -6 6.65625 -5.617188 6.875 -5.109375 C 7.09375 -4.609375 7.203125 -3.988281 7.203125 -3.25 C 7.203125 -2.5 7.085938 -1.875 6.859375 -1.375 C 6.628906 -0.875 6.3125 -0.5 5.90625 -0.25 C 5.5 0 5.023438 0.125 4.484375 0.125 C 4.078125 0.125 3.726562 0.0546875 3.4375 -0.078125 C 3.144531 -0.210938 2.894531 -0.425781 2.6875 -0.71875 L 2.5625 -0.6875 L 2.5625 2.625 Z M 4.03125 -1.265625 C 4.519531 -1.265625 4.890625 -1.421875 5.140625 -1.734375 C 5.390625 -2.054688 5.515625 -2.5625 5.515625 -3.25 C 5.515625 -3.9375 5.390625 -4.4375 5.140625 -4.75 C 4.890625 -5.070312 4.519531 -5.234375 4.03125 -5.234375 C 3.570312 -5.234375 3.207031 -5.066406 2.9375 -4.734375 C 2.675781 -4.410156 2.546875 -3.914062 2.546875 -3.25 C 2.546875 -2.582031 2.675781 -2.082031 2.9375 -1.75 C 3.207031 -1.425781 3.570312 -1.265625 4.03125 -1.265625 Z M 4.03125 -1.265625 "/></g><g transform="translate(180.548421, 292.26199)"><path style="stroke:none" d="M 2.53125 0.125 C 2.113281 0.125 1.75 0.0507812 1.4375 -0.09375 C 1.132812 -0.25 0.898438 -0.472656 0.734375 -0.765625 C 0.578125 -1.066406 0.5 -1.425781 0.5 -1.84375 C 0.5 -2.226562 0.578125 -2.550781 0.734375 -2.8125 C 0.898438 -3.070312 1.15625 -3.285156 1.5 -3.453125 C 1.851562 -3.617188 2.304688 -3.75 2.859375 -3.84375 C 3.253906 -3.90625 3.550781 -3.972656 3.75 -4.046875 C 3.945312 -4.128906 4.082031 -4.21875 4.15625 -4.3125 C 4.226562 -4.40625 4.265625 -4.523438 4.265625 -4.671875 C 4.265625 -4.878906 4.191406 -5.035156 4.046875 -5.140625 C 3.898438 -5.253906 3.660156 -5.3125 3.328125 -5.3125 C 2.960938 -5.3125 2.613281 -5.226562 2.28125 -5.0625 C 1.957031 -4.90625 1.675781 -4.691406 1.4375 -4.421875 L 1.328125 -4.421875 L 0.640625 -5.453125 C 0.972656 -5.816406 1.375 -6.101562 1.84375 -6.3125 C 2.320312 -6.519531 2.84375 -6.625 3.40625 -6.625 C 4.257812 -6.625 4.878906 -6.441406 5.265625 -6.078125 C 5.648438 -5.710938 5.84375 -5.191406 5.84375 -4.515625 L 5.84375 -1.703125 C 5.84375 -1.410156 5.972656 -1.265625 6.234375 -1.265625 C 6.328125 -1.265625 6.421875 -1.28125 6.515625 -1.3125 L 6.609375 -1.296875 L 6.71875 -0.15625 C 6.625 -0.09375 6.5 -0.0390625 6.34375 0 C 6.1875 0.03125 6.007812 0.046875 5.8125 0.046875 C 5.425781 0.046875 5.125 -0.0234375 4.90625 -0.171875 C 4.6875 -0.328125 4.53125 -0.5625 4.4375 -0.875 L 4.3125 -0.890625 C 3.988281 -0.210938 3.394531 0.125 2.53125 0.125 Z M 3.046875 -1.09375 C 3.421875 -1.09375 3.722656 -1.21875 3.953125 -1.46875 C 4.179688 -1.726562 4.296875 -2.082031 4.296875 -2.53125 L 4.296875 -3.1875 L 4.1875 -3.21875 C 4.082031 -3.132812 3.953125 -3.066406 3.796875 -3.015625 C 3.640625 -2.960938 3.410156 -2.910156 3.109375 -2.859375 C 2.753906 -2.804688 2.5 -2.707031 2.34375 -2.5625 C 2.1875 -2.414062 2.109375 -2.210938 2.109375 -1.953125 C 2.109375 -1.671875 2.191406 -1.457031 2.359375 -1.3125 C 2.523438 -1.164062 2.753906 -1.09375 3.046875 -1.09375 Z M 3.046875 -1.09375 "/></g></g><g style="fill:#eb6a18;fill-opacity:1;"><g transform="translate(187.324927, 292.26199)"><path style="stroke:none" d="M 4.484375 -1.546875 L 4.90625 -0.34375 C 4.726562 -0.195312 4.503906 -0.0820312 4.234375 0 C 3.972656 0.0820312 3.671875 0.125 3.328125 0.125 C 2.628906 0.125 2.097656 -0.0664062 1.734375 -0.453125 C 1.367188 -0.835938 1.1875 -1.394531 1.1875 -2.125 L 1.1875 -5.203125 L 0.1875 -5.203125 L 0.1875 -6.5 L 1.1875 -6.5 L 1.1875 -7.765625 L 2.8125 -8.03125 L 2.8125 -6.5 L 4.65625 -6.5 L 4.65625 -5.203125 L 2.8125 -5.203125 L 2.8125 -2.234375 C 2.8125 -1.910156 2.878906 -1.675781 3.015625 -1.53125 C 3.148438 -1.382812 3.34375 -1.3125 3.59375 -1.3125 C 3.882812 -1.3125 4.140625 -1.390625 4.359375 -1.546875 Z M 4.484375 -1.546875 "/></g><g transform="translate(192.374896, 292.26199)"><path style="stroke:none" d="M 0.9375 0 L 0.9375 -9.109375 L 2.5625 -9.109375 L 2.5625 -5.640625 L 2.6875 -5.625 C 2.90625 -5.945312 3.171875 -6.191406 3.484375 -6.359375 C 3.796875 -6.535156 4.175781 -6.625 4.625 -6.625 C 6.050781 -6.625 6.765625 -5.8125 6.765625 -4.1875 L 6.765625 0 L 5.140625 0 L 5.140625 -3.96875 C 5.140625 -4.414062 5.050781 -4.738281 4.875 -4.9375 C 4.695312 -5.132812 4.421875 -5.234375 4.046875 -5.234375 C 3.597656 -5.234375 3.238281 -5.082031 2.96875 -4.78125 C 2.695312 -4.476562 2.5625 -4.003906 2.5625 -3.359375 L 2.5625 0 Z M 0.9375 0 "/></g></g><g style="fill:#eb6a18;fill-opacity:1;"><g transform="translate(199.941012, 292.26199)"><path style="stroke:none" d="M 3.484375 0 L 1.78125 0 L 0.234375 -6.5 L 1.75 -6.5 L 2.703125 -2.109375 L 2.828125 -2.109375 L 4.0625 -6.5 L 5.484375 -6.5 L 6.75 -2.109375 L 6.875 -2.109375 L 7.796875 -6.5 L 9.265625 -6.5 L 7.75 0 L 6.03125 0 L 4.796875 -4.421875 L 4.671875 -4.421875 Z M 3.484375 0 "/></g></g><g style="fill:#eb6a18;fill-opacity:1;"><g transform="translate(209.345624, 292.26199)"><path style="stroke:none" d="M 2.53125 0.125 C 2.113281 0.125 1.75 0.0507812 1.4375 -0.09375 C 1.132812 -0.25 0.898438 -0.472656 0.734375 -0.765625 C 0.578125 -1.066406 0.5 -1.425781 0.5 -1.84375 C 0.5 -2.226562 0.578125 -2.550781 0.734375 -2.8125 C 0.898438 -3.070312 1.15625 -3.285156 1.5 -3.453125 C 1.851562 -3.617188 2.304688 -3.75 2.859375 -3.84375 C 3.253906 -3.90625 3.550781 -3.972656 3.75 -4.046875 C 3.945312 -4.128906 4.082031 -4.21875 4.15625 -4.3125 C 4.226562 -4.40625 4.265625 -4.523438 4.265625 -4.671875 C 4.265625 -4.878906 4.191406 -5.035156 4.046875 -5.140625 C 3.898438 -5.253906 3.660156 -5.3125 3.328125 -5.3125 C 2.960938 -5.3125 2.613281 -5.226562 2.28125 -5.0625 C 1.957031 -4.90625 1.675781 -4.691406 1.4375 -4.421875 L 1.328125 -4.421875 L 0.640625 -5.453125 C 0.972656 -5.816406 1.375 -6.101562 1.84375 -6.3125 C 2.320312 -6.519531 2.84375 -6.625 3.40625 -6.625 C 4.257812 -6.625 4.878906 -6.441406 5.265625 -6.078125 C 5.648438 -5.710938 5.84375 -5.191406 5.84375 -4.515625 L 5.84375 -1.703125 C 5.84375 -1.410156 5.972656 -1.265625 6.234375 -1.265625 C 6.328125 -1.265625 6.421875 -1.28125 6.515625 -1.3125 L 6.609375 -1.296875 L 6.71875 -0.15625 C 6.625 -0.09375 6.5 -0.0390625 6.34375 0 C 6.1875 0.03125 6.007812 0.046875 5.8125 0.046875 C 5.425781 0.046875 5.125 -0.0234375 4.90625 -0.171875 C 4.6875 -0.328125 4.53125 -0.5625 4.4375 -0.875 L 4.3125 -0.890625 C 3.988281 -0.210938 3.394531 0.125 2.53125 0.125 Z M 3.046875 -1.09375 C 3.421875 -1.09375 3.722656 -1.21875 3.953125 -1.46875 C 4.179688 -1.726562 4.296875 -2.082031 4.296875 -2.53125 L 4.296875 -3.1875 L 4.1875 -3.21875 C 4.082031 -3.132812 3.953125 -3.066406 3.796875 -3.015625 C 3.640625 -2.960938 3.410156 -2.910156 3.109375 -2.859375 C 2.753906 -2.804688 2.5 -2.707031 2.34375 -2.5625 C 2.1875 -2.414062 2.109375 -2.210938 2.109375 -1.953125 C 2.109375 -1.671875 2.191406 -1.457031 2.359375 -1.3125 C 2.523438 -1.164062 2.753906 -1.09375 3.046875 -1.09375 Z M 3.046875 -1.09375 "/></g></g><g style="fill:#eb6a18;fill-opacity:1;"><g transform="translate(216.074989, 292.26199)"><path style="stroke:none" d="M 1.4375 2.75 C 1.15625 2.75 0.898438 2.726562 0.671875 2.6875 C 0.453125 2.644531 0.269531 2.585938 0.125 2.515625 L 0.390625 1.203125 L 0.5 1.171875 C 0.59375 1.222656 0.710938 1.265625 0.859375 1.296875 C 1.003906 1.328125 1.15625 1.34375 1.3125 1.34375 C 1.570312 1.34375 1.785156 1.304688 1.953125 1.234375 C 2.128906 1.160156 2.28125 1.046875 2.40625 0.890625 C 2.53125 0.734375 2.640625 0.515625 2.734375 0.234375 L 0.140625 -6.5 L 1.84375 -6.5 L 3.46875 -1.984375 L 3.609375 -1.984375 L 5.171875 -6.5 L 6.84375 -6.5 L 4.234375 0.40625 C 4.023438 0.96875 3.796875 1.414062 3.546875 1.75 C 3.296875 2.09375 3 2.34375 2.65625 2.5 C 2.320312 2.664062 1.914062 2.75 1.4375 2.75 Z M 1.4375 2.75 "/></g><g transform="translate(223.051843, 292.26199)"><path style="stroke:none" d=""/></g><g transform="translate(225.897975, 292.26199)"><path style="stroke:none" d="M 4.484375 -1.546875 L 4.90625 -0.34375 C 4.726562 -0.195312 4.503906 -0.0820312 4.234375 0 C 3.972656 0.0820312 3.671875 0.125 3.328125 0.125 C 2.628906 0.125 2.097656 -0.0664062 1.734375 -0.453125 C 1.367188 -0.835938 1.1875 -1.394531 1.1875 -2.125 L 1.1875 -5.203125 L 0.1875 -5.203125 L 0.1875 -6.5 L 1.1875 -6.5 L 1.1875 -7.765625 L 2.8125 -8.03125 L 2.8125 -6.5 L 4.65625 -6.5 L 4.65625 -5.203125 L 2.8125 -5.203125 L 2.8125 -2.234375 C 2.8125 -1.910156 2.878906 -1.675781 3.015625 -1.53125 C 3.148438 -1.382812 3.34375 -1.3125 3.59375 -1.3125 C 3.882812 -1.3125 4.140625 -1.390625 4.359375 -1.546875 Z M 4.484375 -1.546875 "/></g></g><g style="fill:#eb6a18;fill-opacity:1;"><g transform="translate(230.871341, 292.26199)"><path style="stroke:none" d="M 3.78125 0.125 C 3.144531 0.125 2.582031 -0.00390625 2.09375 -0.265625 C 1.613281 -0.523438 1.238281 -0.90625 0.96875 -1.40625 C 0.707031 -1.914062 0.578125 -2.53125 0.578125 -3.25 C 0.578125 -3.957031 0.707031 -4.566406 0.96875 -5.078125 C 1.238281 -5.585938 1.613281 -5.972656 2.09375 -6.234375 C 2.582031 -6.492188 3.144531 -6.625 3.78125 -6.625 C 4.414062 -6.625 4.972656 -6.492188 5.453125 -6.234375 C 5.929688 -5.972656 6.300781 -5.585938 6.5625 -5.078125 C 6.832031 -4.566406 6.96875 -3.957031 6.96875 -3.25 C 6.96875 -2.53125 6.832031 -1.914062 6.5625 -1.40625 C 6.300781 -0.90625 5.929688 -0.523438 5.453125 -0.265625 C 4.972656 -0.00390625 4.414062 0.125 3.78125 0.125 Z M 3.78125 -1.265625 C 4.789062 -1.265625 5.296875 -1.925781 5.296875 -3.25 C 5.296875 -3.9375 5.164062 -4.4375 4.90625 -4.75 C 4.644531 -5.070312 4.269531 -5.234375 3.78125 -5.234375 C 2.769531 -5.234375 2.265625 -4.570312 2.265625 -3.25 C 2.265625 -1.925781 2.769531 -1.265625 3.78125 -1.265625 Z M 3.78125 -1.265625 "/></g></g><g style="fill:#eb6a18;fill-opacity:1;"><g transform="translate(170.743112, 308.352753)"><path style="stroke:none" d="M 3.8125 0.125 C 3.21875 0.125 2.6875 0.0507812 2.21875 -0.09375 C 1.757812 -0.238281 1.375 -0.429688 1.0625 -0.671875 C 0.75 -0.910156 0.507812 -1.175781 0.34375 -1.46875 L 1.28125 -2.609375 L 1.4375 -2.609375 C 1.6875 -2.222656 2.007812 -1.914062 2.40625 -1.6875 C 2.8125 -1.457031 3.28125 -1.34375 3.8125 -1.34375 C 4.269531 -1.34375 4.613281 -1.4375 4.84375 -1.625 C 5.070312 -1.820312 5.1875 -2.09375 5.1875 -2.4375 C 5.1875 -2.632812 5.148438 -2.800781 5.078125 -2.9375 C 5.003906 -3.082031 4.878906 -3.203125 4.703125 -3.296875 C 4.535156 -3.398438 4.304688 -3.484375 4.015625 -3.546875 L 2.90625 -3.8125 C 2.132812 -3.976562 1.554688 -4.265625 1.171875 -4.671875 C 0.796875 -5.085938 0.609375 -5.625 0.609375 -6.28125 C 0.609375 -6.769531 0.726562 -7.195312 0.96875 -7.5625 C 1.21875 -7.9375 1.570312 -8.222656 2.03125 -8.421875 C 2.5 -8.628906 3.054688 -8.734375 3.703125 -8.734375 C 4.367188 -8.734375 4.9375 -8.644531 5.40625 -8.46875 C 5.882812 -8.289062 6.285156 -8.023438 6.609375 -7.671875 L 5.765625 -6.515625 L 5.625 -6.515625 C 5.375 -6.765625 5.09375 -6.953125 4.78125 -7.078125 C 4.46875 -7.210938 4.109375 -7.28125 3.703125 -7.28125 C 3.234375 -7.28125 2.878906 -7.195312 2.640625 -7.03125 C 2.398438 -6.863281 2.28125 -6.632812 2.28125 -6.34375 C 2.28125 -6.070312 2.363281 -5.851562 2.53125 -5.6875 C 2.695312 -5.53125 2.992188 -5.410156 3.421875 -5.328125 L 4.546875 -5.09375 C 5.378906 -4.914062 5.984375 -4.613281 6.359375 -4.1875 C 6.742188 -3.769531 6.9375 -3.21875 6.9375 -2.53125 C 6.9375 -2 6.816406 -1.53125 6.578125 -1.125 C 6.347656 -0.726562 6 -0.421875 5.53125 -0.203125 C 5.0625 0.015625 4.488281 0.125 3.8125 0.125 Z M 3.8125 0.125 "/></g></g><g style="fill:#eb6a18;fill-opacity:1;"><g transform="translate(178.04406, 308.352753)"><path style="stroke:none" d="M 6.90625 -8.609375 L 6.90625 -7.1875 L 4.421875 -7.1875 L 4.421875 0 L 2.71875 0 L 2.71875 -7.1875 L 0.234375 -7.1875 L 0.234375 -8.609375 Z M 6.90625 -8.609375 "/></g><g transform="translate(185.185908, 308.352753)"><path style="stroke:none" d="M 2.828125 -3.78125 L 2.828125 -1.421875 L 6.9375 -1.421875 L 6.9375 0 L 1.125 0 L 1.125 -8.609375 L 6.84375 -8.609375 L 6.84375 -7.1875 L 2.828125 -7.1875 L 2.828125 -5.171875 L 6.328125 -5.171875 L 6.328125 -3.78125 Z M 2.828125 -3.78125 "/></g><g transform="translate(192.592923, 308.352753)"><path style="stroke:none" d="M 2.6875 0 L 1.125 0 L 1.125 -8.609375 L 3.34375 -8.609375 L 5.53125 -2.28125 L 5.640625 -2.28125 L 7.8125 -8.609375 L 9.984375 -8.609375 L 9.984375 0 L 8.375 0 L 8.375 -5.6875 L 8.234375 -5.71875 L 6.234375 0 L 4.8125 0 L 2.828125 -5.71875 L 2.6875 -5.6875 Z M 2.6875 0 "/></g></g></g></svg>